<?xml version="1.0" encoding="iso-8859-1"?>
<!-- Generator: Adobe Illustrator 19.0.0, SVG Export Plug-In . SVG Version: 6.00 Build 0)  -->
<svg version="1.1" id="Layer_1" xmlns="http://www.w3.org/2000/svg" xmlns:xlink="http://www.w3.org/1999/xlink" x="0px" y="0px"
	 viewBox="0 0 800 800" style="enable-background:new 0 0 800 800;" xml:space="preserve">
<g>
	<path style="fill:#ED1F34;" d="M24.807,646.16V153.838h750.387v401c0,6.563,5.34,11.903,11.903,11.903h1v27.807h-1
		c-6.563,0-11.903,5.34-11.903,11.902v39.71H24.807z M273.435,435.18c-4.493,0-8.717,1.75-11.894,4.928
		c-3.177,3.176-4.926,7.399-4.926,11.893c0,4.492,1.75,8.717,4.926,11.895c3.177,3.177,7.401,4.927,11.894,4.927
		c4.492,0,8.716-1.75,11.893-4.927c3.177-3.178,4.927-7.402,4.927-11.895c0-4.493-1.75-8.717-4.927-11.893
		C282.151,436.93,277.927,435.18,273.435,435.18z M200.42,411.634c1.936,1.26,4.179,1.926,6.489,1.926
		c2.529,0,4.949-0.787,6.998-2.275c3.962-2.877,5.771-7.988,4.5-12.719l-11.981-44.585l35.898-29.027
		c3.808-3.078,5.349-8.276,3.836-12.935s-5.816-7.958-10.707-8.21l-46.105-2.381l-16.511-43.111
		c-1.751-4.573-6.219-7.645-11.116-7.645s-9.364,3.072-11.116,7.645l-16.511,43.111l-46.104,2.381
		c-4.891,0.252-9.193,3.552-10.707,8.21c-1.513,4.658,0.029,9.855,3.836,12.933l35.899,29.027l-11.981,44.585
		c-1.271,4.73,0.538,9.841,4.5,12.719c2.047,1.487,4.467,2.273,6.998,2.273c2.31,0,4.554-0.665,6.489-1.925l38.699-25.173
		L200.42,411.634z M314.313,364.354c-7.589,0-14.263,5.127-16.23,12.468c-1.163,4.339-0.567,8.871,1.678,12.76
		c2.246,3.889,5.873,6.672,10.212,7.835c1.43,0.383,2.899,0.578,4.365,0.578c7.589,0,14.264-5.127,16.231-12.468
		c2.399-8.956-2.935-18.195-11.891-20.596C317.247,364.549,315.778,364.354,314.313,364.354z M314.334,282.574
		c-1.466,0-2.934,0.194-4.364,0.578c-8.956,2.401-14.29,11.64-11.89,20.596c1.967,7.34,8.642,12.467,16.233,12.467
		c1.465,0,2.933-0.194,4.363-0.577c4.339-1.162,7.965-3.944,10.211-7.834s2.842-8.422,1.679-12.762
		C328.599,287.701,321.924,282.574,314.334,282.574z M273.435,211.752c-4.493,0-8.717,1.75-11.894,4.928
		c-3.177,3.176-4.926,7.399-4.926,11.892s1.75,8.717,4.926,11.895s7.401,4.927,11.894,4.927c4.492,0,8.716-1.75,11.893-4.927
		c3.177-3.178,4.927-7.402,4.927-11.895s-1.75-8.716-4.927-11.892C282.151,213.502,277.927,211.752,273.435,211.752z"/>
	<path style="fill:#ED1F34;" d="M774.193,554.838v-400H25.807V645.16h748.387v-38.71c0-7.127,5.775-12.902,12.903-12.902v-25.807
		C779.969,567.741,774.193,561.966,774.193,554.838z M242.952,325.731l-35.392,28.618l11.813,43.957
		c1.387,5.162-0.552,10.646-4.877,13.788c-2.257,1.64-4.918,2.466-7.585,2.466c-2.445,0-4.891-0.692-7.035-2.088l-38.154-24.82
		l-38.154,24.818c-4.48,2.915-10.295,2.766-14.62-0.378c-4.325-3.142-6.264-8.626-4.877-13.788l11.813-43.957l-35.395-28.618
		c-4.157-3.36-5.81-8.936-4.159-14.02c1.652-5.084,6.268-8.625,11.606-8.9l45.455-2.348l16.279-42.503
		c1.912-4.991,6.705-8.287,12.05-8.287c5.346,0,10.139,3.296,12.05,8.287l16.278,42.503l45.456,2.348
		c5.338,0.275,9.955,3.816,11.606,8.9C248.762,316.795,247.109,322.372,242.952,325.731z M286.035,464.602
		c-6.959,6.959-18.242,6.959-25.201,0c-6.959-6.961-6.959-18.244,0-25.201c6.959-6.961,18.242-6.961,25.201,0
		C292.995,446.357,292.995,457.641,286.035,464.602z M286.035,241.174c-6.959,6.959-18.242,6.959-25.201,0
		c-6.959-6.96-6.959-18.243,0-25.201c6.959-6.961,18.242-6.961,25.201,0C292.995,222.931,292.995,234.213,286.035,241.174z
		 M331.534,385.787c-2.547,9.503-12.315,15.145-21.82,12.597c-9.506-2.548-15.146-12.315-12.597-21.82
		c2.547-9.505,12.315-15.145,21.82-12.597C328.442,366.514,334.08,376.283,331.534,385.787z M318.936,316.603
		c-9.504,2.546-19.274-3.093-21.821-12.597s3.093-19.272,12.597-21.82s19.273,3.095,21.82,12.597
		C334.08,304.288,328.44,314.059,318.936,316.603z"/>
	<path d="M774.193,606.45v38.71H25.807V154.838h748.387v400c0,7.128,5.775,12.903,12.903,12.903S800,561.966,800,554.838V141.935
		c0-7.128-5.775-12.903-12.903-12.903H12.903C5.777,129.031,0,134.807,0,141.935v516.129c0,7.128,5.777,12.903,12.903,12.903
		h774.193c7.128,0,12.903-5.775,12.903-12.903v-51.613c0-7.127-5.775-12.902-12.903-12.902S774.193,599.323,774.193,606.45z"/>
	<path style="fill:#FFE000;" d="M168.208,362.283c-1.935-1.26-4.178-1.925-6.489-1.925s-4.555,0.666-6.489,1.925l-19.138,12.448
		l5.924-22.048c1.221-4.542-0.354-9.387-4.011-12.345l-17.755-14.356l22.802-1.177c4.698-0.244,8.82-3.239,10.502-7.631
		l8.167-21.319l8.167,21.317c1.683,4.393,5.804,7.389,10.499,7.633l22.802,1.177l-17.755,14.356
		c-3.657,2.958-5.231,7.803-4.01,12.344l5.924,22.048L168.208,362.283z"/>
	<path style="fill:#FFE000;" d="M168.953,317.53l-7.233-18.88l-7.232,18.881c-1.825,4.766-6.288,8.007-11.384,8.272l-20.194,1.042
		l15.725,12.714c3.967,3.208,5.672,8.454,4.348,13.381l-5.247,19.527l16.95-11.024c2.138-1.392,4.586-2.087,7.035-2.087
		s4.896,0.695,7.035,2.087l16.95,11.024l-5.247-19.527c-1.325-4.927,0.38-10.173,4.347-13.381l15.725-12.714l-20.194-1.042
		C175.24,325.539,170.778,322.296,168.953,317.53z"/>
	<path d="M235.504,302.812l-45.456-2.349L173.77,257.96c-1.912-4.991-6.705-8.288-12.05-8.288s-10.138,3.296-12.05,8.288
		l-16.279,42.503l-45.455,2.349c-5.339,0.275-9.955,3.816-11.606,8.9c-1.652,5.083,0.001,10.66,4.158,14.02l35.393,28.618
		l-11.813,43.957c-1.387,5.162,0.552,10.646,4.877,13.788c4.323,3.144,10.14,3.293,14.62,0.378l38.154-24.82l38.154,24.818
		c2.144,1.396,4.59,2.088,7.035,2.088c2.667,0,5.328-0.824,7.585-2.466c4.325-3.142,6.264-8.626,4.877-13.788l-11.813-43.957
		l35.393-28.618c4.157-3.36,5.81-8.936,4.158-14.02C245.459,306.628,240.843,303.087,235.504,302.812z M184.805,339.559
		c-3.967,3.208-5.672,8.454-4.348,13.381l5.248,19.527l-16.95-11.024c-2.139-1.392-4.587-2.087-7.035-2.087
		s-4.896,0.695-7.035,2.087l-16.95,11.024l5.248-19.527c1.325-4.927-0.38-10.173-4.348-13.381l-15.725-12.714l20.194-1.042
		c5.096-0.263,9.559-3.506,11.384-8.272l7.231-18.88l7.233,18.881c1.825,4.766,6.288,8.007,11.384,8.272l20.194,1.042
		L184.805,339.559z"/>
	<circle style="fill:#FFE000;" cx="314.324" cy="299.395" r="17.815"/>
	<circle style="fill:#FFE000;" cx="273.435" cy="228.572" r="17.82"/>
	<circle style="fill:#FFE000;" cx="314.324" cy="381.176" r="17.815"/>
	<circle style="fill:#FFE000;" cx="273.435" cy="452.001" r="17.82"/>
</g>
<g>
</g>
<g>
</g>
<g>
</g>
<g>
</g>
<g>
</g>
<g>
</g>
<g>
</g>
<g>
</g>
<g>
</g>
<g>
</g>
<g>
</g>
<g>
</g>
<g>
</g>
<g>
</g>
<g>
</g>
</svg>
