<?xml version="1.0" encoding="utf-8"?>
<!-- Generator: Adobe Illustrator 23.0.0, SVG Export Plug-In . SVG Version: 6.00 Build 0)  -->
<svg version="1.1" id="Layer_1" xmlns="http://www.w3.org/2000/svg" xmlns:xlink="http://www.w3.org/1999/xlink" x="0px" y="0px"
	 viewBox="0 0 50 50" style="enable-background:new 0 0 50 50;" xml:space="preserve">
<style type="text/css">
	.st0{fill:#FFCE35;}
	.st1{fill:#FF642F;}
	.st2{fill:#C4411F;}
	.st3{fill:#FFFFFF;}
	.st4{fill:#F2EBD9;}
	.st5{fill:#333134;}
	.st6{fill:#666970;}
	.st7{fill:#27BEC4;}
	.st8{fill:#D0D2D3;}
	.st9{fill:#C4C3C4;}
	.st10{opacity:0.2;fill:#373538;}
	.st11{fill:#0F0D10;}
	.st12{fill:#E1E1E2;}
	.st13{fill:#DBAE31;}
	.st14{fill:#F0F0F0;}
	.st15{opacity:0.2;}
	.st16{fill:#232124;}
	.st17{fill:#7DCECF;}
	.st18{fill:#24566D;}
	.st19{fill:#FEDA6A;}
	.st20{fill:#242325;}
</style>
<g>
	<rect x="0" y="0" class="st0" width="50" height="50"/>
	<g>
		<circle class="st0" cx="25" cy="25" r="25"/>
		<g>
			<g>
				<rect x="32.1" y="27.2" width="5.4" height="0.9"/>
			</g>
			<g>
				<polygon points="37.1,24.1 31.2,24.1 31.2,23.2 36.2,23.2 36.2,18.3 37.1,18.3 				"/>
			</g>
			<g>
				<polygon points="37.1,37 36.2,37 36.2,32.1 31.2,32.1 31.2,31.2 37.1,31.2 				"/>
			</g>
			<g>
				<rect x="12.5" y="27.2" width="5.4" height="0.9"/>
			</g>
			<g>
				<polygon points="18.8,24.1 12.9,24.1 12.9,18.3 13.8,18.3 13.8,23.2 18.8,23.2 				"/>
			</g>
			<g>
				<polygon points="13.8,37 12.9,37 12.9,31.2 18.8,31.2 18.8,32.1 13.8,32.1 				"/>
			</g>
			<g>
				<g>
					<path class="st1" d="M18.8,19.2c-0.6,2.1-1,4.5-1,7.1c0,7.9,3.2,14.3,7.1,14.3V19.2H18.8z"/>
					<path class="st2" d="M31.2,19.2H25v21.4c3.9,0,7.1-6.4,7.1-14.3C32.1,23.7,31.8,21.3,31.2,19.2z"/>
				</g>
				<path d="M25,12c-2.6,0-4.9,2.9-6.2,7.1h12.4C30,14.9,27.6,12,25,12z"/>
			</g>
			<circle class="st3" cx="27.2" cy="16.5" r="0.9"/>
			<circle class="st3" cx="22.8" cy="16.5" r="0.9"/>
			<g>
				<path d="M26.6,12.9h-0.4c0-2.1,1.7-3.8,3.8-3.8v0.4C28.1,9.6,26.6,11.1,26.6,12.9z"/>
			</g>
			<g>
				<path d="M23.9,12.9h-0.4c0-1.8-1.5-3.3-3.3-3.3V9.1C22.2,9.1,23.9,10.8,23.9,12.9z"/>
			</g>
		</g>
	</g>
</g>
<g>
	<rect x="0" y="0" class="st4" width="50" height="50"/>
	<g>
		<circle class="st4" cx="25" cy="25" r="25"/>
		<g>
			<rect x="13.4" y="8" class="st5" width="23.2" height="32.1"/>
			<g>
				<rect x="15.2" y="12.2" class="st0" width="4.5" height="0.4"/>
			</g>
			<g>
				<rect x="16.1" y="14" class="st6" width="7.1" height="0.4"/>
			</g>
			<g>
				<rect x="18.7" y="16.7" class="st6" width="6.2" height="0.4"/>
			</g>
			<g>
				<rect x="21.4" y="14.9" class="st3" width="11.2" height="0.4"/>
			</g>
			<g>
				<rect x="17.9" y="15.8" class="st7" width="4.9" height="0.4"/>
			</g>
			<g>
				<rect x="17" y="21.2" class="st6" width="8" height="0.4"/>
			</g>
			<g>
				<rect x="16.1" y="20.3" class="st7" width="3.1" height="0.4"/>
			</g>
			<g>
				<rect x="18.7" y="23" class="st7" width="1.3" height="0.4"/>
			</g>
			<g>
				<rect x="20.1" y="20.3" class="st6" width="8" height="0.4"/>
			</g>
			<g>
				<rect x="21" y="23" class="st6" width="13.8" height="0.4"/>
			</g>
			<g>
				<rect x="17.9" y="22.1" class="st3" width="4" height="0.4"/>
			</g>
			<g>
				<rect x="22.8" y="22.1" class="st0" width="1.8" height="0.4"/>
			</g>
			<g>
				<rect x="25.4" y="22.1" class="st3" width="3.6" height="0.4"/>
			</g>
			<g>
				<rect x="29" y="20.3" class="st3" width="5.8" height="0.4"/>
			</g>
			<rect x="13.4" y="8" width="23.2" height="1.8"/>
			<g>
				<rect x="24.1" y="14" class="st6" width="3.6" height="0.4"/>
			</g>
			<g>
				<rect x="17" y="14.9" class="st0" width="3.6" height="0.4"/>
			</g>
			<g>
				<rect x="15.2" y="18.5" class="st0" width="2.7" height="0.4"/>
			</g>
			<g>
				<rect x="15.2" y="25.6" class="st0" width="4.5" height="0.4"/>
			</g>
			<g>
				<rect x="16.1" y="27.4" class="st6" width="7.1" height="0.4"/>
			</g>
			<g>
				<rect x="18.7" y="30.1" class="st6" width="6.2" height="0.4"/>
			</g>
			<g>
				<rect x="21.4" y="28.3" class="st3" width="11.2" height="0.4"/>
			</g>
			<g>
				<rect x="17.9" y="29.2" class="st7" width="4.9" height="0.4"/>
			</g>
			<g>
				<rect x="17" y="34.6" class="st6" width="8" height="0.4"/>
			</g>
			<g>
				<rect x="16.1" y="33.7" class="st7" width="3.1" height="0.4"/>
			</g>
			<g>
				<rect x="18.7" y="36.4" class="st7" width="1.3" height="0.4"/>
			</g>
			<g>
				<rect x="20.1" y="33.7" class="st6" width="8" height="0.4"/>
			</g>
			<g>
				<rect x="21" y="36.4" class="st6" width="13.8" height="0.4"/>
			</g>
			<g>
				<rect x="17.9" y="35.5" class="st3" width="4" height="0.4"/>
			</g>
			<g>
				<rect x="22.8" y="35.5" class="st0" width="1.8" height="0.4"/>
			</g>
			<g>
				<rect x="25.4" y="35.5" class="st3" width="3.6" height="0.4"/>
			</g>
			<g>
				<rect x="29" y="33.7" class="st3" width="5.8" height="0.4"/>
			</g>
			<g>
				<rect x="24.1" y="27.4" class="st6" width="3.6" height="0.4"/>
			</g>
			<g>
				<rect x="17" y="28.3" class="st0" width="3.6" height="0.4"/>
			</g>
			<g>
				<rect x="15.2" y="31.9" class="st0" width="2.7" height="0.4"/>
			</g>
		</g>
	</g>
</g>
<g>
	<rect x="0" y="0" class="st7" width="50" height="50"/>
	<g>
		<circle class="st7" cx="25" cy="25" r="25"/>
		<g>
			<g>
				<path class="st8" d="M21.9,23.2l-9.3-5.4c-1.2,2.1-1.9,4.5-1.9,7.1h10.7C21.4,24.3,21.6,23.7,21.9,23.2z"/>
				<path class="st9" d="M23.2,21.9l-5.4-9.3c-2.2,1.3-4,3.1-5.2,5.2l9.3,5.4C22.2,22.6,22.7,22.2,23.2,21.9z"/>
				<path class="st8" d="M25,21.4V10.7c-2.6,0-5,0.7-7.1,1.9l5.4,9.3C23.7,21.6,24.3,21.4,25,21.4z"/>
				<path class="st3" d="M28.6,25h10.7c0-7.9-6.4-14.3-14.3-14.3v10.7C27,21.4,28.6,23,28.6,25z"/>
				<path class="st8" d="M28.6,25c0,0.6-0.2,1.3-0.5,1.8l9.3,5.4c1.2-2.1,1.9-4.5,1.9-7.1H28.6z"/>
				<path class="st9" d="M26.8,28.1l5.4,9.3c2.2-1.3,4-3.1,5.2-5.2l-9.3-5.4C27.8,27.3,27.3,27.7,26.8,28.1z"/>
				<path class="st8" d="M25,28.5v10.7c2.6,0,5-0.7,7.1-1.9l-5.4-9.3C26.3,28.4,25.7,28.5,25,28.5z"/>
				<path class="st3" d="M21.4,25H10.7c0,7.9,6.4,14.3,14.3,14.3V28.5C23,28.5,21.4,26.9,21.4,25z"/>
				<path d="M25,26.8c-1,0-1.8-0.8-1.8-1.8c0-0.3,0.1-0.6,0.2-0.9l-1.5-0.9c-0.3,0.5-0.5,1.1-0.5,1.8c0,2,1.6,3.6,3.6,3.6
					c0.7,0,1.3-0.2,1.8-0.5l-0.9-1.5C25.6,26.7,25.3,26.8,25,26.8z"/>
				<path d="M24.1,23.4l-0.9-1.5c-0.5,0.3-1,0.8-1.3,1.3l1.5,0.9C23.6,23.8,23.8,23.6,24.1,23.4z"/>
				<path d="M25.9,26.5l0.9,1.5c0.5-0.3,1-0.8,1.3-1.3l-1.5-0.9C26.4,26.1,26.2,26.4,25.9,26.5z"/>
				<path d="M25,21.4c-0.7,0-1.3,0.2-1.8,0.5l0.9,1.5c0.3-0.2,0.6-0.2,0.9-0.2c1,0,1.8,0.8,1.8,1.8c0,0.3-0.1,0.6-0.2,0.9l1.5,0.9
					c0.3-0.5,0.5-1.1,0.5-1.8C28.6,23,27,21.4,25,21.4z"/>
			</g>
			<path class="st10" d="M25,11.6c-7.4,0-13.4,6-13.4,13.4c0,7.4,6,13.4,13.4,13.4c7.4,0,13.4-6,13.4-13.4
				C38.4,17.6,32.4,11.6,25,11.6z M25,26.8c-1,0-1.8-0.8-1.8-1.8c0-1,0.8-1.8,1.8-1.8s1.8,0.8,1.8,1.8C26.8,26,26,26.8,25,26.8z"/>
		</g>
	</g>
</g>
<g>
	<rect x="0" y="0" class="st1" width="50" height="50"/>
	<g>
		<circle class="st1" cx="25" cy="25" r="25"/>
		<g>
			<rect x="15.2" y="19.6" class="st11" width="25.9" height="10.7"/>
			<rect x="8.9" y="21.8" class="st12" width="6.2" height="6.2"/>
			<rect x="9.4" y="22.7" class="st9" width="2.7" height="1.3"/>
			<rect x="9.4" y="25.9" class="st9" width="2.7" height="1.3"/>
			<g>
				<circle class="st9" cx="22.9" cy="25" r="1"/>
				<rect x="29.6" y="26.3" class="st9" width="1.3" height="1.3"/>
				<polygon class="st9" points="33,25.6 33,24.3 34.3,25 				"/>
				<g>
					<rect x="23.6" y="24.9" class="st9" width="9.4" height="0.2"/>
				</g>
				<circle class="st9" cx="29" cy="23" r="0.7"/>
				<g>
					<polygon class="st9" points="25,25 24.9,24.9 26.9,22.9 29,22.9 29,23.1 27,23.1 					"/>
				</g>
				<g>
					<polygon class="st9" points="30.3,27.1 28.9,27.1 26.9,25 27,24.9 29,26.9 30.3,26.9 					"/>
				</g>
			</g>
		</g>
	</g>
</g>
<g>
	<rect x="0" y="0" class="st1" width="50" height="50"/>
	<g>
		<circle class="st1" cx="25" cy="25" r="25"/>
		<g>
			<g>
				<path class="st3" d="M10.7,15.3l24.2,24.2l4.4-4.4L15.1,10.9L10.7,15.3z M14.4,14.6c-0.2,0.2-0.5,0.2-0.7,0
					c-0.2-0.2-0.2-0.5,0-0.7c0.2-0.2,0.5-0.2,0.7,0C14.6,14,14.6,14.4,14.4,14.6z"/>
				<g>
					<g>
						<g>
							<rect x="36.9" y="33.9" transform="matrix(0.7071 -0.7071 0.7071 0.7071 -13.0605 36.4375)" width="1" height="0.2"/>
						</g>
					</g>
					<g>
						<g>
							<rect x="35.5" y="32.4" transform="matrix(0.7071 -0.7071 0.7071 0.7071 -12.4536 34.9722)" width="1" height="0.2"/>
						</g>
					</g>
					<g>
						<g>
							<rect x="34" y="30.9" transform="matrix(0.7071 -0.7071 0.7071 0.7071 -11.8466 33.5068)" width="1" height="0.2"/>
						</g>
					</g>
					<g>
						<g>
							<rect x="32.5" y="29.5" transform="matrix(0.7072 -0.7071 0.7071 0.7072 -11.24 32.0387)" width="1" height="0.2"/>
						</g>
					</g>
					<g>
						<g>
							<rect x="31.1" y="28" transform="matrix(0.7072 -0.7071 0.7071 0.7072 -10.6331 30.5735)" width="1" height="0.2"/>
						</g>
					</g>
					<g>
						<g>
							<rect x="29.6" y="26.5" transform="matrix(0.7071 -0.7071 0.7071 0.7071 -10.026 29.1113)" width="1" height="0.2"/>
						</g>
					</g>
					<g>
						<g>
							<rect x="28.1" y="25.1" transform="matrix(0.7071 -0.7071 0.7071 0.7071 -9.4189 27.6461)" width="1" height="0.2"/>
						</g>
					</g>
					<g>
						<g>
							<rect x="26.7" y="23.6" transform="matrix(0.7071 -0.7071 0.7071 0.7071 -8.8121 26.1811)" width="1" height="0.2"/>
						</g>
					</g>
					<g>
						<g>
							<rect x="25.2" y="22.2" transform="matrix(0.7071 -0.7071 0.7071 0.7071 -8.2052 24.7157)" width="1" height="0.2"/>
						</g>
					</g>
					<g>
						<g>
							<rect x="23.7" y="20.7" transform="matrix(0.7071 -0.7072 0.7072 0.7071 -7.5979 23.2528)" width="1" height="0.2"/>
						</g>
					</g>
					<g>
						<g>
							<rect x="22.3" y="19.2" transform="matrix(0.7071 -0.7071 0.7071 0.7071 -6.9914 21.7854)" width="1" height="0.2"/>
						</g>
					</g>
					<g>
						<g>
							<rect x="20.8" y="17.8" transform="matrix(0.7071 -0.7071 0.7071 0.7071 -6.3846 20.3203)" width="1" height="0.2"/>
						</g>
					</g>
					<g>
						<g>
							<rect x="19.4" y="16.3" transform="matrix(0.7071 -0.7071 0.7071 0.7071 -5.7775 18.8549)" width="1" height="0.2"/>
						</g>
					</g>
					<g>
						<g>
							<rect x="17.9" y="14.8" transform="matrix(0.7071 -0.7071 0.7071 0.7071 -5.1706 17.3898)" width="1" height="0.2"/>
						</g>
					</g>
					<g>
						<g>
							<rect x="16.4" y="13.4" transform="matrix(0.7071 -0.7071 0.7071 0.7071 -4.5637 15.9246)" width="1" height="0.2"/>
						</g>
					</g>
				</g>
			</g>
			<g>
				<g>
					<path class="st3" d="M36.7,17.9c-0.2,0.2-0.5,0.2-0.7,0l-3.7-3.7c-0.2-0.2-0.2-0.5,0-0.7l2.2-2.2c0.2-0.2,0.5-0.2,0.7,0
						l3.7,3.7c0.2,0.2,0.2,0.5,0,0.7L36.7,17.9z"/>
					<rect x="34" y="12.6" transform="matrix(0.7071 -0.7071 0.7071 0.7071 -0.9679 29.0017)" width="1" height="6.2"/>
					<g>
						<polygon class="st3" points="17.6,37 13.2,32.6 11.7,37 13.2,38.5 						"/>
						<polygon points="13.2,38.5 11.7,37 11,39.2 						"/>
					</g>
				</g>
			</g>
			
				<rect x="11.5" y="24.4" transform="matrix(0.7071 -0.7071 0.7071 0.7071 -10.7143 24.9639)" class="st0" width="26.5" height="2.1"/>
			<g>
				<polygon class="st0" points="32.5,14.4 32,13.8 13.2,32.6 13.7,33.1 14.7,34.1 33.4,15.3 				"/>
				<polygon class="st13" points="35.8,17.7 34.9,16.8 16.1,35.5 17,36.4 17.6,37 36.4,18.2 				"/>
			</g>
		</g>
	</g>
</g>
<g>
	<rect x="0" y="0" class="st7" width="50" height="50"/>
	<g>
		<circle class="st7" cx="25" cy="25" r="25"/>
		<g>
			<g>
				<rect x="8.9" y="15.6" class="st3" width="32.1" height="21"/>
			</g>
			<g>
				<rect x="8.9" y="13.4" class="st9" width="32.1" height="2.2"/>
			</g>
			<g>
				<rect x="8.9" y="15.6" class="st14" width="7.1" height="21"/>
			</g>
			<g class="st15">
				<rect x="31.7" y="18.3" width="8.5" height="8.5"/>
			</g>
			<g>
				<rect x="23.2" y="15.6" class="st14" width="0.4" height="21"/>
			</g>
			<g>
				<rect x="30.4" y="15.6" class="st14" width="0.4" height="21"/>
			</g>
			<g>
				<rect x="16.1" y="19.2" class="st9" width="7.1" height="0.9"/>
			</g>
			<g>
				<g>
					<rect x="31.7" y="14.5" class="st3" width="8.5" height="0.9"/>
				</g>
			</g>
			<g>
				<rect x="31.7" y="27.8" class="st9" width="8.5" height="0.2"/>
			</g>
			<g>
				<rect x="33" y="28.7" class="st9" width="0.9" height="0.2"/>
			</g>
			<g>
				<rect x="33" y="29.5" class="st9" width="0.9" height="0.2"/>
			</g>
			<g>
				<rect x="33.3" y="30" class="st9" width="0.7" height="0.2"/>
			</g>
			<g>
				<rect x="32.8" y="30.4" class="st9" width="1.1" height="0.2"/>
			</g>
			<g>
				<rect x="33" y="30.9" class="st9" width="0.9" height="0.2"/>
			</g>
			<g>
				<rect x="34.4" y="28.7" class="st16" width="4.9" height="0.2"/>
			</g>
			<g>
				<rect x="34.4" y="29.5" class="st16" width="1.3" height="0.2"/>
			</g>
			<g>
				<rect x="34.4" y="30" class="st16" width="0.7" height="0.2"/>
			</g>
			<g>
				<rect x="34.4" y="30.4" class="st16" width="4" height="0.2"/>
			</g>
			<g>
				<rect x="34.4" y="31.8" class="st16" width="2" height="0.2"/>
			</g>
			<g>
				<rect x="33.5" y="31.3" class="st9" width="0.4" height="0.2"/>
			</g>
			<g>
				<rect x="33.3" y="31.8" class="st9" width="0.7" height="0.2"/>
			</g>
			<g>
				<rect x="34.4" y="30.9" class="st16" width="2" height="0.2"/>
			</g>
			<g>
				<rect x="34.4" y="31.3" class="st16" width="2.5" height="0.2"/>
			</g>
			<g>
				<rect x="24.1" y="15.9" class="st9" width="1.8" height="0.2"/>
			</g>
			<g>
				<rect x="16.5" y="15.9" class="st9" width="1.8" height="0.2"/>
			</g>
			<g>
				<rect x="9.4" y="15.9" class="st9" width="1.8" height="0.2"/>
			</g>
			<g>
				<rect x="9.4" y="24.9" class="st9" width="1.8" height="0.2"/>
			</g>
			<g>
				<rect x="9.4" y="26.6" class="st9" width="1.8" height="0.2"/>
			</g>
			<g>
				<rect x="9.8" y="16.8" class="st16" width="2.7" height="0.2"/>
			</g>
			<g>
				<rect x="9.8" y="17.7" class="st16" width="3.3" height="0.2"/>
			</g>
			<g>
				<rect x="9.8" y="18.6" class="st16" width="2.2" height="0.2"/>
			</g>
			<g>
				<rect x="9.8" y="19.5" class="st16" width="2.7" height="0.2"/>
			</g>
			<g>
				<rect x="9.8" y="20.4" class="st16" width="2.5" height="0.2"/>
			</g>
			<g>
				<rect x="9.8" y="21.3" class="st16" width="2.9" height="0.2"/>
			</g>
			<g>
				<rect x="9.8" y="22.2" class="st16" width="2.5" height="0.2"/>
			</g>
			<g>
				<rect x="9.8" y="23.1" class="st16" width="2.2" height="0.2"/>
			</g>
			<g>
				<rect x="9.8" y="24" class="st16" width="2.9" height="0.2"/>
			</g>
			<g>
				<rect x="9.8" y="25.8" class="st16" width="2.7" height="0.2"/>
			</g>
			<g>
				<rect x="12.9" y="25.8" class="st16" width="1.6" height="0.2"/>
			</g>
			<g>
				<rect x="9.8" y="27.5" class="st16" width="3.3" height="0.2"/>
			</g>
			<g>
				<rect x="9.8" y="28.4" class="st16" width="2.7" height="0.2"/>
			</g>
			<g>
				<rect x="16.5" y="16.7" class="st7" width="0.4" height="0.4"/>
			</g>
			<g>
				<rect x="17.4" y="16.8" class="st16" width="1.8" height="0.2"/>
			</g>
			<g>
				<rect x="16.5" y="17.6" class="st7" width="0.4" height="0.4"/>
			</g>
			<g>
				<rect x="17.4" y="17.7" class="st16" width="2.5" height="0.2"/>
			</g>
			<g>
				<rect x="16.5" y="18.5" class="st7" width="0.4" height="0.4"/>
			</g>
			<g>
				<rect x="17.4" y="18.6" class="st16" width="1.3" height="0.2"/>
			</g>
			<g>
				<rect x="16.5" y="19.4" class="st7" width="0.4" height="0.4"/>
			</g>
			<g>
				<rect x="16.5" y="20.3" class="st1" width="0.4" height="0.4"/>
			</g>
			<g>
				<rect x="16.5" y="21.2" class="st17" width="0.4" height="0.4"/>
			</g>
			<g>
				<rect x="16.5" y="22.1" class="st17" width="0.4" height="0.4"/>
			</g>
			<g>
				<rect x="16.5" y="23" class="st2" width="0.4" height="0.4"/>
			</g>
			<g>
				<rect x="16.5" y="23.9" class="st2" width="0.4" height="0.4"/>
			</g>
			<g>
				<rect x="17.4" y="19.5" class="st16" width="2" height="0.2"/>
			</g>
			<g>
				<rect x="20.3" y="17.7" class="st16" width="1.1" height="0.2"/>
			</g>
			<g>
				<rect x="17.4" y="20.4" class="st16" width="4" height="0.2"/>
			</g>
			<g>
				<rect x="17.4" y="21.3" class="st16" width="2.9" height="0.2"/>
			</g>
			<g>
				<rect x="17.4" y="22.2" class="st16" width="4.5" height="0.2"/>
			</g>
			<g>
				<rect x="17.4" y="23.1" class="st16" width="3.3" height="0.2"/>
			</g>
			<g>
				<rect x="17.4" y="24" class="st16" width="2.9" height="0.2"/>
			</g>
			<g>
				<rect x="23.7" y="17.4" class="st9" width="6.7" height="0.9"/>
			</g>
			<g>
				<rect x="24.1" y="16.7" class="st7" width="0.4" height="0.4"/>
			</g>
			<g>
				<rect x="25" y="16.8" class="st16" width="1.8" height="0.2"/>
			</g>
			<g>
				<rect x="24.1" y="17.6" class="st7" width="0.4" height="0.4"/>
			</g>
			<g>
				<rect x="25" y="17.7" class="st16" width="2.5" height="0.2"/>
			</g>
			<g>
				<rect x="24.1" y="18.5" class="st17" width="0.4" height="0.4"/>
			</g>
			<g>
				<rect x="25" y="18.6" class="st16" width="2.5" height="0.2"/>
			</g>
			<g>
				<rect x="24.1" y="19.4" class="st17" width="0.4" height="0.4"/>
			</g>
			<g>
				<rect x="24.1" y="20.3" class="st18" width="0.4" height="0.4"/>
			</g>
			<g>
				<rect x="24.1" y="21.2" class="st19" width="0.4" height="0.4"/>
			</g>
			<g>
				<rect x="24.1" y="22.1" class="st1" width="0.4" height="0.4"/>
			</g>
			<g>
				<rect x="24.1" y="23" class="st17" width="0.4" height="0.4"/>
			</g>
			<g>
				<rect x="24.1" y="23.9" class="st18" width="0.4" height="0.4"/>
			</g>
			<g>
				<rect x="25" y="19.5" class="st16" width="3.3" height="0.2"/>
			</g>
			<g>
				<rect x="25" y="20.4" class="st16" width="2.2" height="0.2"/>
			</g>
			<g>
				<rect x="25" y="21.3" class="st16" width="3.3" height="0.2"/>
			</g>
			<g>
				<rect x="25" y="22.2" class="st16" width="2.2" height="0.2"/>
			</g>
			<g>
				<rect x="25" y="23.1" class="st16" width="2.5" height="0.2"/>
			</g>
			<g>
				<rect x="25" y="24" class="st16" width="1.8" height="0.2"/>
			</g>
			<g>
				<rect x="24.1" y="24.7" class="st2" width="0.4" height="0.4"/>
			</g>
			<g>
				<rect x="25" y="24.9" class="st16" width="1.8" height="0.2"/>
			</g>
			<g>
				<rect x="24.1" y="25.6" class="st17" width="0.4" height="0.4"/>
			</g>
			<g>
				<rect x="24.1" y="26.5" class="st1" width="0.4" height="0.4"/>
			</g>
			<g>
				<rect x="24.1" y="27.4" class="st19" width="0.4" height="0.4"/>
			</g>
			<g>
				<rect x="24.1" y="28.3" class="st17" width="0.4" height="0.4"/>
			</g>
			<g>
				<rect x="24.1" y="29.2" class="st17" width="0.4" height="0.4"/>
			</g>
			<g>
				<rect x="24.1" y="30.1" class="st9" width="0.4" height="0.4"/>
			</g>
			<g>
				<rect x="25" y="25.8" class="st16" width="1.3" height="0.2"/>
			</g>
			<g>
				<rect x="25" y="26.6" class="st16" width="2.9" height="0.2"/>
			</g>
			<g>
				<rect x="25" y="27.5" class="st16" width="3.1" height="0.2"/>
			</g>
			<g>
				<rect x="25" y="28.4" class="st16" width="3.8" height="0.2"/>
			</g>
			<g>
				<rect x="25" y="29.3" class="st16" width="1.6" height="0.2"/>
			</g>
			<g>
				<rect x="25" y="30.2" class="st16" width="2.9" height="0.2"/>
			</g>
		</g>
	</g>
</g>
<g>
	<rect x="0" y="0" class="st0" width="50" height="50"/>
	<g>
		<circle class="st0" cx="25" cy="25" r="25"/>
		<g>
			<g>
				<g>
					<g>
						<g>
							<path class="st11" d="M33.3,9.5h-19v31l19,0c1.3,0,2.4-1.1,2.4-2.4V11.9C35.7,10.6,34.6,9.5,33.3,9.5z"/>
						</g>
					</g>
				</g>
				<g>
					<rect x="14.3" y="9.5" class="st16" width="1.8" height="30.9"/>
				</g>
			</g>
			<rect x="14" y="19" class="st3" width="22" height="11.9"/>
			<rect x="23.8" y="25.9" class="st20" width="9.5" height="2.4"/>
			<g>
				<rect x="30.4" y="8.9" class="st1" width="1.2" height="32.1"/>
			</g>
		</g>
	</g>
</g>
</svg>
