<?xml version="1.0" encoding="utf-8"?>
<!-- Generator: Adobe Illustrator 23.0.0, SVG Export Plug-In . SVG Version: 6.00 Build 0)  -->
<svg version="1.1" id="Layer_1" xmlns="http://www.w3.org/2000/svg" xmlns:xlink="http://www.w3.org/1999/xlink" x="0px" y="0px"
	 viewBox="0 0 50 50" style="enable-background:new 0 0 50 50;" xml:space="preserve">
<style type="text/css">
	.st0{fill:#FFCE35;}
	.st1{fill:#FF642F;}
	.st2{fill:#C4411F;}
	.st3{fill:#FFFFFF;}
</style>
<g>
	<rect x="0" y="0" class="st0" width="50" height="50"/>
	<g>
		<circle class="st0" cx="25" cy="25" r="25"/>
		<g>
			<g>
				<rect x="32.1" y="27.2" width="5.4" height="0.9"/>
			</g>
			<g>
				<polygon points="37.1,24.1 31.2,24.1 31.2,23.2 36.2,23.2 36.2,18.3 37.1,18.3 				"/>
			</g>
			<g>
				<polygon points="37.1,37 36.2,37 36.2,32.1 31.2,32.1 31.2,31.2 37.1,31.2 				"/>
			</g>
			<g>
				<rect x="12.5" y="27.2" width="5.4" height="0.9"/>
			</g>
			<g>
				<polygon points="18.8,24.1 12.9,24.1 12.9,18.3 13.8,18.3 13.8,23.2 18.8,23.2 				"/>
			</g>
			<g>
				<polygon points="13.8,37 12.9,37 12.9,31.2 18.8,31.2 18.8,32.1 13.8,32.1 				"/>
			</g>
			<g>
				<g>
					<path class="st1" d="M18.8,19.2c-0.6,2.1-1,4.5-1,7.1c0,7.9,3.2,14.3,7.1,14.3V19.2H18.8z"/>
					<path class="st2" d="M31.2,19.2H25v21.4c3.9,0,7.1-6.4,7.1-14.3C32.1,23.7,31.8,21.3,31.2,19.2z"/>
				</g>
				<path d="M25,12c-2.6,0-4.9,2.9-6.2,7.1h12.4C30,14.9,27.6,12,25,12z"/>
			</g>
			<circle class="st3" cx="27.2" cy="16.5" r="0.9"/>
			<circle class="st3" cx="22.8" cy="16.5" r="0.9"/>
			<g>
				<path d="M26.6,12.9h-0.4c0-2.1,1.7-3.8,3.8-3.8v0.4C28.1,9.6,26.6,11.1,26.6,12.9z"/>
			</g>
			<g>
				<path d="M23.9,12.9h-0.4c0-1.8-1.5-3.3-3.3-3.3V9.1C22.2,9.1,23.9,10.8,23.9,12.9z"/>
			</g>
		</g>
	</g>
</g>
</svg>
