<?xml version="1.0" encoding="utf-8"?>
<!-- Generator: Adobe Illustrator 23.0.0, SVG Export Plug-In . SVG Version: 6.00 Build 0)  -->
<svg version="1.1" id="Layer_1" xmlns="http://www.w3.org/2000/svg" xmlns:xlink="http://www.w3.org/1999/xlink" x="0px" y="0px"
	 viewBox="0 0 50 50" style="enable-background:new 0 0 50 50;" xml:space="preserve">
<style type="text/css">
	.st0{fill:#27BEC4;}
	.st1{fill:#1B191C;}
	.st2{fill:#FFFFFF;}
	.st3{fill:#FF642F;}
	.st4{fill:#ABADB3;}
	.st5{fill:#272528;}
</style>
<g>
	<rect class="st0" width="50" height="50"/>
	<g>
		<ellipse transform="matrix(0.7074 -0.7068 0.7068 0.7074 -10.3555 24.9868)" class="st0" cx="25" cy="25" rx="25" ry="25"/>
		<g>
			<g>
				<path class="st1" d="M25,45.4h-0.4c0-2.5-2.7-3.3-5.5-4.1c-2.9-0.9-5.9-1.8-5.9-4.7h0.4c0,2.6,2.7,3.4,5.6,4.3
					C22.1,41.7,25,42.6,25,45.4z"/>
			</g>
			<g>
				<path class="st1" d="M25.5,45.4H25c0-2.8,2.9-3.7,5.8-4.6c2.9-0.9,5.6-1.7,5.6-4.3h0.4c0,2.9-3,3.9-5.9,4.7
					C28.1,42.1,25.5,42.9,25.5,45.4z"/>
			</g>
			<g>
				<rect x="24.8" y="45.4" class="st1" width="0.4" height="4.6"/>
			</g>
			<g>
				<rect x="24.6" y="45.4" class="st1" width="0.9" height="1.3"/>
			</g>
			<polygon class="st1" points="12.5,34.7 10.7,33.8 10.7,30.2 12.5,29.3 			"/>
			<polygon class="st1" points="37.5,34.7 39.3,33.8 39.3,30.2 37.5,29.3 			"/>
			<g>
				<rect x="10.3" y="22.2" class="st2" width="2.2" height="3.6"/>
				<g>
					<path class="st2" d="M17,28.9c0-1-0.8-1.8-1.8-1.8h-0.9c-1,0-1.8,0.8-1.8,1.8v6.2c0,1,0.8,1.8,1.8,1.8h0.9c1,0,1.8-0.8,1.8-1.8
						V28.9z"/>
					<path class="st2" d="M33.1,28.9c0-1,0.8-1.8,1.8-1.8h0.9c1,0,1.8,0.8,1.8,1.8v6.2c0,1-0.8,1.8-1.8,1.8h-0.9
						c-1,0-1.8-0.8-1.8-1.8V28.9z"/>
				</g>
				<rect x="37.5" y="22.2" class="st2" width="2.2" height="3.6"/>
			</g>
			<g>
				<g>
					<path d="M10.8,22.2c0-0.6,0-1.2,0-1.8h0.4c0,0.6,0,1.2,0,1.8L10.8,22.2z"/>
				</g>
				<g>
					<path d="M11.2,29.9c0,0-0.2-1.7-0.3-4.2l0.4,0c0.1,2.4,0.3,4.1,0.3,4.1L11.2,29.9z"/>
				</g>
				<g>
					<path d="M38.9,29.9l-0.4,0c0,0,0.2-1.7,0.3-4.1l0.4,0C39,28.2,38.9,29.9,38.9,29.9z"/>
				</g>
				<g>
					<path d="M39.3,22.2l-0.4,0c0-0.6,0-1.2,0-1.8h0.4C39.3,21,39.3,21.6,39.3,22.2z"/>
				</g>
				<g>
					<path d="M11.9,22.2h-0.4c0-3.4,1.3-6.7,3.6-9.3l0.3,0.3C13.1,15.7,11.9,18.8,11.9,22.2z"/>
				</g>
				<g>
					<path d="M38.6,22.2h-0.4c0-3.3-1.2-6.5-3.5-8.9l0.3-0.3C37.3,15.4,38.6,18.7,38.6,22.2z"/>
				</g>
			</g>
			<g>
				<path class="st2" d="M25,8c-4.1,0-7.9,1.8-10.5,4.6l0.9,1.1c2.4-2.3,5.8-3.8,9.6-3.8s7.2,1.5,9.6,3.8l0.9-1.1
					C32.9,9.7,29.2,8,25,8z"/>
			</g>
			<g>
				<path class="st2" d="M15.2,27.1h-0.9c-1,0-1.8,0.8-1.8,1.8v3.6v2.7c0,1,0.8,1.8,1.8,1.8h0.9c1,0,1.8-0.8,1.8-1.8v-2.7v-3.6
					C17,27.9,16.2,27.1,15.2,27.1z"/>
				<path class="st2" d="M35.7,27.1h-0.9c-1,0-1.8,0.8-1.8,1.8v3.6v2.7c0,1,0.8,1.8,1.8,1.8h0.9c1,0,1.8-0.8,1.8-1.8v-2.7v-3.6
					C37.5,27.9,36.7,27.1,35.7,27.1z"/>
			</g>
		</g>
	</g>
</g>
<g>
	<rect y="0" class="st3" width="50" height="50"/>
	<g>
		<circle class="st3" cx="25" cy="25" r="25"/>
		<g>
			<g>
				<path class="st2" d="M17,29.9c-0.1,0-0.2,0-0.3-0.1c-0.2-0.2-0.2-0.5,0-0.6l9.1-9.1c0.2-0.2,0.5-0.2,0.6,0
					c0.2,0.2,0.2,0.5,0,0.6l-9.1,9.1C17.2,29.9,17.1,29.9,17,29.9z"/>
			</g>
			<g>
				<path class="st2" d="M25,25.9H11.5c-0.5,0-0.9-0.4-0.9-0.9c0-0.5,0.4-0.9,0.9-0.9H25c0.5,0,0.9,0.4,0.9,0.9
					C25.9,25.5,25.5,25.9,25,25.9z"/>
			</g>
			<path class="st2" d="M34.2,11.5c-0.3-0.3-1-0.6-1.5-0.6h-6.1c-0.5,0-0.9,0.4-0.9,0.9v1c0,0.5,0.4,0.9,0.9,0.9h6.1
				c0.5,0,1.2-0.3,1.5-0.6l0.1-0.1c0.3-0.3,0.3-0.9,0-1.3L34.2,11.5z"/>
			<path class="st2" d="M33.4,29.5c-0.5,0-1.2,0.3-1.5,0.6l-4.3,4.3c-0.3,0.3-0.3,0.9,0,1.3l0.7,0.7c0.3,0.3,0.9,0.3,1.3,0l4.3-4.3
				c0.3-0.3,0.6-1,0.6-1.5v-0.2c0-0.5-0.4-0.9-0.9-0.9H33.4z"/>
			<path class="st2" d="M39.2,24.3c0-0.5-0.3-1.2-0.6-1.5l-8.8-8.8c-0.3-0.3-0.9-0.3-1.3,0l-2.3,2.3c-0.3,0.3-0.3,0.9,0,1.3l8.8,8.8
				c0.3,0.3,1,0.6,1.5,0.6h1.8c0.5,0,0.9-0.4,0.9-0.9L39.2,24.3z"/>
			<g>
				<rect x="20.8" y="14.5" class="st1" width="8.4" height="21"/>
				<path class="st1" d="M29.2,35.5c0,2.3-1.9,4.2-4.2,4.2c-2.3,0-4.2-1.9-4.2-4.2c0-2.3,1.9-4.2,4.2-4.2
					C27.3,31.3,29.2,33.2,29.2,35.5z"/>
				<path class="st1" d="M29.2,14.5c0,2.3-1.9,4.2-4.2,4.2s-4.2-1.9-4.2-4.2s1.9-4.2,4.2-4.2C27.3,10.3,29.2,12.2,29.2,14.5z"/>
			</g>
			<g>
				<path class="st4" d="M37.1,23.8c-0.1,0-0.2,0-0.3-0.1L35.1,22c-0.2-0.2-0.2-0.5,0-0.6c0.2-0.2,0.5-0.2,0.6,0l1.7,1.7
					c0.2,0.2,0.2,0.5,0,0.6C37.3,23.8,37.2,23.8,37.1,23.8z"/>
			</g>
		</g>
	</g>
</g>
<g>
	<rect y="0" class="st0" width="50" height="50"/>
	<g>
		<path class="st0" d="M25,50C11.2,50,0,38.8,0,25C0,11.2,11.2,0,25,0c13.8,0,25,11.2,25,25C50,38.8,38.8,50,25,50z"/>
		<g>
			<g>
				<ellipse class="st2" cx="25" cy="25" rx="16.1" ry="7.1"/>
			</g>
			<circle class="st0" cx="25" cy="25" r="5.4"/>
			<circle class="st5" cx="25" cy="25" r="3.6"/>
			<circle class="st2" cx="23.7" cy="23.7" r="0.9"/>
		</g>
	</g>
</g>
</svg>
