<?xml version="1.0" encoding="utf-8"?>
<!-- Generator: Adobe Illustrator 23.0.0, SVG Export Plug-In . SVG Version: 6.00 Build 0)  -->
<svg version="1.1" id="Layer_1" xmlns="http://www.w3.org/2000/svg" xmlns:xlink="http://www.w3.org/1999/xlink" x="0px" y="0px"
	 viewBox="0 0 16.4 15.7" style="enable-background:new 0 0 16.4 15.7;" xml:space="preserve">
<style type="text/css">
	.st0{fill:#788195;}
</style>
<g>
	<g>
		<path class="st0" d="M16,4.3l-3.7-3.8c-0.1-0.1-0.3-0.2-0.4-0.2c-0.1,0-0.2,0-0.2,0c-0.3,0.1-0.4,0.3-0.4,0.6v1.9H9.8
			c-0.7,0-1.3,0-1.9,0.1C7.3,3,6.8,3.1,6.3,3.2C5.9,3.4,5.5,3.5,5.1,3.7C4.8,3.9,4.5,4.1,4.2,4.3C4,4.5,3.8,4.8,3.6,5
			C3.4,5.3,3.2,5.6,3.1,5.8C3,6.1,2.9,6.4,2.9,6.7C2.8,7,2.7,7.3,2.7,7.6c0,0.3,0,0.6,0,0.9c0,0.4,0.1,0.8,0.2,1.2
			c0.1,0.4,0.2,0.8,0.4,1.1c0.1,0.3,0.3,0.6,0.5,1c0.2,0.3,0.3,0.6,0.4,0.7c0.1,0.1,0.1,0.2,0.2,0.3c0.1,0.1,0.1,0.1,0.3,0.1
			c0,0,0.1,0,0.1,0c0.1-0.1,0.2-0.2,0.2-0.3c-0.3-2.2-0.1-3.7,0.7-4.6C6.3,7,7.7,6.6,9.8,6.6h1.5v1.9c0,0.3,0.1,0.5,0.4,0.6
			c0.1,0,0.2,0,0.2,0c0.2,0,0.3-0.1,0.4-0.2L16,5.1c0.1-0.1,0.2-0.3,0.2-0.4C16.2,4.5,16.2,4.4,16,4.3z M13.6,9.7
			c-0.1-0.1-0.2,0-0.3,0.1c-0.2,0.2-0.3,0.3-0.5,0.4c-0.1,0.1-0.2,0.2-0.2,0.3v2.1c0,0.4-0.2,0.8-0.5,1.1c-0.3,0.3-0.7,0.5-1.1,0.5
			H3c-0.4,0-0.8-0.2-1.1-0.5c-0.3-0.3-0.5-0.7-0.5-1.1V4.4c0-0.4,0.2-0.8,0.5-1.1C2.2,3,2.6,2.8,3,2.8h1.1c0,0,0.1,0,0.2,0
			C4.6,2.6,5,2.4,5.5,2.2c0.2,0,0.3-0.1,0.3-0.3c0-0.1,0-0.2-0.1-0.2C5.6,1.6,5.5,1.6,5.4,1.6H3c-0.8,0-1.4,0.3-2,0.8
			C0.5,3,0.2,3.6,0.2,4.4v8.1c0,0.8,0.3,1.4,0.8,2c0.5,0.6,1.2,0.8,2,0.8h8c0.8,0,1.4-0.3,2-0.8c0.5-0.6,0.8-1.2,0.8-2V10
			C13.8,9.9,13.7,9.8,13.6,9.7z"/>
	</g>
</g>
</svg>
