<?xml version="1.0" encoding="utf-8"?>
<!-- Generator: Adobe Illustrator 23.0.0, SVG Export Plug-In . SVG Version: 6.00 Build 0)  -->
<svg version="1.1" id="Layer_1" xmlns="http://www.w3.org/2000/svg" xmlns:xlink="http://www.w3.org/1999/xlink" x="0px" y="0px"
	 viewBox="0 0 128 128" style="enable-background:new 0 0 128 128;" xml:space="preserve">
<style type="text/css">
	.st0{fill-rule:evenodd;clip-rule:evenodd;fill:#00C7E6;}
	.st1{fill:#5243AA;}
	.st2{fill:#6555C0;}
	.st3{fill:#8777D9;}
	.st4{fill:#FFFFFF;}
	.st5{opacity:0.15;fill:#7F4CBF;enable-background:new    ;}
	.st6{fill:#00C7E6;}
	.st7{fill:#403294;}
</style>
<g id="Page-1">
	<g id="project_avatar_alien">
		<g id="Default">
			<g>
				<rect id="Rectangle" y="0" class="st0" width="128" height="128"/>
				<path id="Shape" class="st1" d="M40.3,109.7h-2.1c-1.8,0-3.2-1.4-3.2-3.2V93.9c0-1.8,1.4-3.2,3.2-3.2h2.1c1.8,0,3.2,1.4,3.2,3.2
					v12.5C43.5,108.2,42,109.7,40.3,109.7z"/>
				<path class="st1" d="M89,109.7h-2.1c-1.8,0-3.2-1.4-3.2-3.2V93.9c0-1.8,1.4-3.2,3.2-3.2H89c1.8,0,3.2,1.4,3.2,3.2v12.5
					C92.2,108.2,90.8,109.7,89,109.7z"/>
				<ellipse id="Oval" class="st2" cx="63.8" cy="74.7" rx="43.6" ry="30"/>
				<ellipse class="st3" cx="64" cy="67.7" rx="50.3" ry="30"/>
				<path class="st4" d="M94.8,48.6c0-0.6,0.1-1.3,0.1-1.9c0-17.2-14-31.2-31.2-31.2c-16.9,0-30.7,13.4-31.2,30.2h0v8.3h0
					c0.3,9.7,5.1,16.4,12.4,20.4l37.7,0c7.5-4,12.4-11,12.4-21.2c0-0.6,0-1.3-0.1-1.9V48.6L94.8,48.6z"/>
				<path class="st5" d="M32.5,44.3c0,0.5-0.1,0.9-0.1,1.4h0v8.3h0c0.5,16.7,14.2,24.5,31.2,24.5c17.2,0,31.2-8.1,31.2-25.4
					c0-0.6,0-1.3-0.1-1.9v-2.6c0-0.6,0.1-1.3,0.1-1.9c0-0.9,0-1.9-0.1-2.8C86.2,40,75.5,37.6,64,37.6C52,37.6,41.1,40.1,32.5,44.3z"
					/>
				<path class="st6" d="M63.6,28.3L63.6,28.3c-10.4,0-18.8,8.5-18.8,18.8v6.1v15v6.1c5.2,2.8,11.8,4.2,18.8,4.2s13.6-1.4,18.8-4.2
					v-6.1v-15v-6.1C82.4,36.7,74,28.3,63.6,28.3z"/>
				<circle class="st4" cx="63.9" cy="50.7" r="11.1"/>
				<circle class="st7" cx="63.5" cy="50.6" r="4.4"/>
			</g>
		</g>
	</g>
</g>
</svg>
