<?xml version="1.0" encoding="utf-8"?>
<!-- Generator: Adobe Illustrator 23.0.0, SVG Export Plug-In . SVG Version: 6.00 Build 0)  -->
<svg version="1.1" id="Layer_1" xmlns="http://www.w3.org/2000/svg" xmlns:xlink="http://www.w3.org/1999/xlink" x="0px" y="0px"
	 viewBox="0 0 15.4 15.1" style="enable-background:new 0 0 15.4 15.1;" xml:space="preserve">
<style type="text/css">
	.st0{fill:#788195;}
</style>
<g>
	<g>
		<path class="st0" d="M13.5,11.6c2.2-2.4,2.3-5.9,0.4-8.5c-1.5-2-3.6-2.9-6.2-3c-0.3,0-0.6,0-0.9,0.1C5,0.4,3.4,1.2,2.2,2.4
			C0.5,4.2-0.2,6.2,0.3,8.6c0.5,2.2,1.9,3.7,3.9,4.7c1.6,0.8,3.3,1,5,0.7c0.1,0,0.2,0,0.3,0c0.9,0.3,1.7,0.6,2.6,1
			c0.4,0.2,0.8,0.1,1.1-0.2c0.3-0.3,0.3-0.7,0.1-1.1c-0.2-0.4-0.4-0.8-0.6-1.1c-0.1-0.1,0-0.2,0.1-0.3C13,12.1,13.3,11.8,13.5,11.6z
			 M11.9,11.3c-0.3,0.2-0.6,0.4-0.8,0.6c0.1,0.3,0.3,0.5,0.4,0.7c0.1,0.2,0.2,0.5,0.4,0.7c-0.1,0-0.2-0.1-0.2-0.1
			c-0.7-0.2-1.3-0.5-2-0.7c-0.1,0-0.2,0-0.3,0c-1.9,0.4-3.6,0.1-5.2-0.9C2.7,10.8,1.8,9.6,1.6,8C1.3,6.3,1.8,4.8,2.9,3.5
			c1.1-1.2,2.4-1.8,4-2c1.8-0.2,3.4,0.3,4.8,1.4c1.5,1.2,2.2,2.8,2.1,4.7C13.8,9.1,13,10.4,11.9,11.3z M7.7,6.1
			C7,6.1,6.5,6.6,6.5,7.2c0,0.6,0.5,1.2,1.2,1.2c0.6,0,1.2-0.5,1.2-1.1C8.9,6.6,8.3,6.1,7.7,6.1z M4.5,6.1c-0.6,0-1.2,0.5-1.2,1.1
			c0,0.6,0.5,1.2,1.2,1.2c0.6,0,1.2-0.5,1.2-1.2C5.7,6.6,5.2,6.1,4.5,6.1z M10.9,6.1c-0.6,0-1.2,0.5-1.2,1.1c0,0.6,0.5,1.2,1.2,1.2
			c0.6,0,1.2-0.5,1.2-1.2C12,6.6,11.5,6.1,10.9,6.1z"/>
	</g>
</g>
</svg>
