<?xml version="1.0" encoding="utf-8"?>
<!-- Generator: Adobe Illustrator 23.0.0, SVG Export Plug-In . SVG Version: 6.00 Build 0)  -->
<svg version="1.1" id="Layer_1" xmlns="http://www.w3.org/2000/svg" xmlns:xlink="http://www.w3.org/1999/xlink" x="0px" y="0px"
	 viewBox="0 0 20.4 20.5" style="enable-background:new 0 0 20.4 20.5;" xml:space="preserve">
<style type="text/css">
	.st0{fill:#788195;}
</style>
<path class="st0" d="M19.9,18.8L15.1,14c1.2-1.5,1.9-3.3,1.9-5.3c0-4.7-3.8-8.4-8.4-8.4C3.9,0.3,0.2,4,0.2,8.7s3.8,8.4,8.4,8.4
	c2,0,3.9-0.7,5.3-1.9l4.8,4.8c0.3,0.3,0.9,0.3,1.2,0C20.3,19.7,20.3,19.2,19.9,18.8L19.9,18.8z M8.6,15.4c-3.7,0-6.8-3-6.8-6.8
	s3-6.8,6.8-6.8c3.7,0,6.8,3,6.8,6.8S12.3,15.4,8.6,15.4L8.6,15.4z M8.6,15.4"/>
</svg>
