<?xml version="1.0" encoding="utf-8"?>
<!-- Generator: Adobe Illustrator 23.0.0, SVG Export Plug-In . SVG Version: 6.00 Build 0)  -->
<svg version="1.1" id="icons" xmlns="http://www.w3.org/2000/svg" xmlns:xlink="http://www.w3.org/1999/xlink" x="0px" y="0px"
	 viewBox="0 0 25 31.1" style="enable-background:new 0 0 25 31.1;" xml:space="preserve">
<style type="text/css">
	.st0{fill:#FF0000;}
</style>
<g>
	<g>
		<path class="st0" d="M21.1,4.1h-4.6c-0.2-2-1.9-3.6-4-3.6c-2.1,0-3.8,1.6-4,3.6H3.9C2,4.1,0.5,5.7,0.5,7.6v0.2
			c0,1.4,0.9,2.7,2.1,3.2v16.2c0,1.9,1.5,3.4,3.4,3.4H19c1.9,0,3.4-1.5,3.4-3.4V10.9c1.3-0.5,2.1-1.7,2.1-3.2V7.6
			C24.5,5.7,23,4.1,21.1,4.1z M12.5,2.2c1.2,0,2.1,0.8,2.4,2h-4.7C10.4,3,11.3,2.2,12.5,2.2z M20.7,27.1c0,1-0.8,1.8-1.8,1.8H6
			c-1,0-1.8-0.8-1.8-1.8V11.2h16.5V27.1z M22.9,7.7c0,1-0.8,1.8-1.8,1.8H3.9c-1,0-1.8-0.8-1.8-1.8V7.6c0-1,0.8-1.8,1.8-1.8h17.2
			c1,0,1.8,0.8,1.8,1.8V7.7z M8.2,26.8C8.6,26.8,9,26.5,9,26v-9.2c0-0.4-0.4-0.8-0.8-0.8c-0.4,0-0.8,0.4-0.8,0.8V26
			C7.4,26.5,7.7,26.8,8.2,26.8z M12.5,26.8c0.4,0,0.8-0.4,0.8-0.8v-9.2c0-0.4-0.4-0.8-0.8-0.8c-0.4,0-0.8,0.4-0.8,0.8V26
			C11.7,26.5,12.1,26.8,12.5,26.8z M16.8,26.8c0.4,0,0.8-0.4,0.8-0.8v-9.2c0-0.4-0.4-0.8-0.8-0.8c-0.4,0-0.8,0.4-0.8,0.8V26
			C16,26.5,16.4,26.8,16.8,26.8z"/>
	</g>
</g>
</svg>
