<?xml version="1.0" encoding="utf-8"?>
<!-- Generator: Adobe Illustrator 23.0.0, SVG Export Plug-In . SVG Version: 6.00 Build 0)  -->
<svg version="1.1" xmlns="http://www.w3.org/2000/svg" xmlns:xlink="http://www.w3.org/1999/xlink" x="0px" y="0px"
	 viewBox="0 0 926.7 616.4" style="enable-background:new 0 0 926.7 616.4;" xml:space="preserve">
<style type="text/css">
	.st0{fill:#F9F9F9;}
	.st1{fill:#E3E3E3;}
	.st2{fill:#EFEFEF;}
	.st3{fill:#6A79A8;}
	.st4{fill:#FFFFFF;}
	.st5{fill:#FF9C81;}
</style>
<g id="Ñëîé_1">
	<path class="st0" d="M545.6,139.6h276.6c1.3-26.5-11.8-53.1-35.4-65.5c-23.5-12.3-54.1-9.7-75.2,6.5
		c-18.9-16.3-38.4-32.9-62.2-40.2c-23.8-7.3-53.1-2.8-67.8,17.3c-10.1,13.9-11.5,32.9-6.6,49.3c-21.5-0.2-43.1,0.3-64.6,1.5
		c-12.3,0.7-29,4.2-29.6,16.5C479.9,143.5,545.6,139.6,545.6,139.6z"/>
	<path class="st0" d="M882.2,369.2c-5.1-2.7-10.9-3.2-16.6-1.9c-3.4,0.8-6.7,2-10,3c-6.3,1.9-6.9,3.6-9.5-1.9
		c-2.8-6,0.6-12.2-4.9-18.4c-4-4.5-9.8-7.1-15.8-7.1c-2.2,0-4.3,0.3-6.3,1c-4.2-9.8-9-19.2-16.9-26.8c-15.8-15.2-39.9-21.5-60.5-13
		c-9.2,3.8-17.3,10.1-23.8,17.7c-3.4,3.9-6.4,8.3-8.9,12.8c-2.3,4.1-3.3,9.5-6.1,13.2c-6.1-2.3-11.7-5.3-18-7.1
		c-12.4-3.4-25.9-4.1-36.8,4c-8.9,6.6-14.6,18.6-11.7,29.7c1.6,6.3,4.6,10.9,11,11c9,0.1,18.1,0,27.1,0c32.3,0,64.6,0,96.9,0
		c32.1,0,64.2,0,96.3,0c10.1,0,30.3,0,30.3,0S891.5,374.2,882.2,369.2z"/>
	<path class="st0" d="M11.7,309.1c-2.9-15.5,2.6-32.5,14.1-43.5c14.3-13.7,36.1-19.5,54.7-11.8c8.4,3.5,15.7,9.2,21.6,16
		c3.1,3.6,5.8,7.5,8.1,11.6c2.1,3.7,3,8.6,5.5,12c5.5-2.1,10.6-4.8,16.3-6.4c11.2-3.1,23.5-3.7,33.3,3.6
		c8.2,6.1,13.3,17.2,10.5,27.3c-1,3.6-3.7,9.5-7.7,9.8c-1.2,0.1-2.4,0-3.6,0c-10.9,0-21.8,0-32.6,0c-15.9,0-31.8,0-47.7,0
		c-14.5,0-29,0-43.5,0c-3.9,0-7.8,0-11.8,0c-2,0-4.1,0-6.1,0c-2.4,0-2.7-0.4-4.1-2.4C15.2,320.5,12.9,314.9,11.7,309.1z"/>
</g>
<g id="Ñëîé_2">
	<g>
		<g>
			<path class="st1" d="M643.9,190.9l-206.5-1.8c-12.2-0.1-23.8-5.8-31.3-15.5l-8-10.3c-3.4-4.3-8.5-6.9-14-6.9l-141.5-1.2
				c-8.5-0.1-15.4,6.7-15.5,15.2l-0.5,54.1l-2.3,266.2c-0.1,8.5,6.7,15.4,15.2,15.5l407.9,3.5c8.5,0.1,15.4-6.7,15.5-15.2l2.5-281.7
				C665.5,200.8,655.9,191,643.9,190.9z"/>
			<path class="st2" d="M630.7,190.8l-193.9-1.5c-11.9-0.1-23-5.8-30.3-15.5l-7.7-10.3c-3.2-4.3-8.2-6.9-13.5-6.9l-143.1-1.4
				c-8.2-0.1-14.9,6.8-15,15.2l-0.5,54.1l-2.3,266.2c-0.1,8.5,6.5,15.4,14.8,15.5l395,3.4c8.2,0.1,14.9-6.8,15-15.2l2.5-281.7
				C651.7,200.7,642.3,190.9,630.7,190.8z"/>
			<path class="st1" d="M643.2,500.4L244,496.9c-10.9-0.1-19.6-9-19.6-19.9l2.2-248.9c0.1-10.9,9-19.6,19.9-19.6l399.2,3.5
				c10.9,0.1,19.6,9,19.6,19.9l-2.2,248.9C663,491.7,654.1,500.5,643.2,500.4z"/>
			<g>
				<path class="st3" d="M644.5,189c-19.1-0.2-38.2-0.3-57.3-0.5c-34.3-0.3-68.6-0.6-102.9-0.9c-12.1-0.1-24.1-0.2-36.2-0.3
					c-9.9-0.1-19.3,0.1-28.4-5c-8.3-4.7-13.3-12.4-19.1-19.7c-4.3-5.4-10-7.9-16.8-8.1c-9.8-0.2-19.6-0.2-29.3-0.3
					c-32.3-0.3-64.6-0.6-96.9-0.8c-8.6-0.1-19.2-1.7-26.4,4.2c-5.5,4.5-6.5,10.6-6.5,17.2c-0.1,7.6-0.1,15.1-0.2,22.7
					c-0.1,15.6-0.3,31.3-0.4,46.9c-0.3,29-0.5,58-0.8,86.9c-0.3,34.3-0.6,68.5-0.9,102.8c-0.2,18.8-0.6,37.6-0.5,56.4
					c0.1,10.5,7.9,17.4,18.1,17.6c4.9,0.1,9.8,0.1,14.7,0.1c23.1,0.2,46.2,0.4,69.3,0.6c33.3,0.3,66.6,0.6,99.9,0.9
					c35,0.3,70,0.6,105,0.9c27.7,0.2,55.4,0.5,83.1,0.7c11.6,0.1,23.2,0.6,34.8,0.3c9.2-0.2,17.5-6.7,18.5-16.2
					c0.1-1.5,0.1-3,0.1-4.5c0.1-7.8,0.1-15.6,0.2-23.4c0.3-30,0.5-60.1,0.8-90.1c0.3-34.3,0.6-68.7,0.9-103
					c0.2-20.1,0.3-40.1,0.5-60.2C667.9,200.5,658.7,189.6,644.5,189c-2.4-0.1-4.5,3.6-1.2,3.7c11.3,0.5,19.6,9.5,19.7,20.7
					c0,1.4,0,2.9,0,4.3c-0.1,8.2-0.1,16.3-0.2,24.5c-0.3,29.9-0.5,59.7-0.8,89.6c-0.3,33.5-0.6,67.1-0.9,100.6
					c-0.2,20-0.3,40-0.5,60c-0.1,8.3-4.2,15.4-13.6,15.5c-4.6,0.1-9.3-0.1-14-0.1c-22.1-0.2-44.3-0.4-66.4-0.6
					c-32.4-0.3-64.7-0.6-97.1-0.8c-34.4-0.3-68.7-0.6-103.1-0.9c-28.1-0.2-56.3-0.5-84.4-0.7c-13.6-0.1-27.3,0.1-41-0.4
					c-9.7-0.3-14.4-7.8-14.3-16.7c0.1-7.4,0.1-14.9,0.2-22.3c0.3-29.6,0.5-59.2,0.8-88.8c0.3-33.2,0.6-66.4,0.9-99.5
					c0.2-17.5,0.3-35,0.5-52.5c0.1-10,0.2-20,0.3-29.9c0.1-7.1,0.1-14.1,0.2-21.2c0.1-8.1,3.1-16,12.6-16.3
					c24-0.7,48.2,0.4,72.2,0.6c23,0.2,46.2-0.5,69.3,0.6c10,0.5,14.7,9.4,20.3,16.4c7,8.8,17,14.7,28.3,16
					c6.1,0.7,12.4,0.4,18.5,0.4c29.5,0.3,58.9,0.5,88.4,0.8c29.8,0.3,59.6,0.5,89.3,0.8c5,0,10,0.1,14.9,0.1
					C645.7,192.8,647.8,189.1,644.5,189z"/>
			</g>
		</g>
		<g>
			<path class="st2" d="M649.6,509.8l-412.1-3.6c-7.3-0.1-13.2-6.1-13.1-13.4l2.3-261.9c0.1-7.3,6.1-13.2,13.4-13.1l412.1,3.6
				c7.3,0.1,13.2,6,13.1,13.4L663,496.6C662.9,504,656.9,509.9,649.6,509.8z"/>
			<path class="st4" d="M638.9,499.7l-401.4-3.5c-7.3-0.1-13.2-6.1-13.1-13.4l2.2-251c0.1-7.3,6.1-13.2,13.4-13.1l401.4,3.5
				c7.3,0.1,13.2,6.1,13.1,13.4l-2.2,251C652.2,493.9,646.2,499.8,638.9,499.7z"/>
			<g>
				<path class="st3" d="M650.2,507.9c-9.8-0.1-19.6-0.2-29.3-0.3c-24.4-0.2-48.8-0.4-73.2-0.6c-32.2-0.3-64.3-0.6-96.5-0.8
					c-32.5-0.3-65-0.6-97.5-0.8c-26-0.2-52.1-0.5-78.1-0.7c-12.2-0.1-24.5,0.2-36.7-0.3c-8.8-0.3-12-7.3-11.9-14.9
					c0.1-7.4,0.1-14.8,0.2-22.2c0.2-28.4,0.5-56.8,0.7-85.2c0.3-32.1,0.6-64.2,0.8-96.4c0.2-17.9-0.1-35.9,0.5-53.8
					c0.2-7.6,5.3-12,12.5-11.9c5.1,0,10.1,0.1,15.2,0.1c21.5,0.2,43,0.4,64.5,0.6c31,0.3,61.9,0.5,92.9,0.8
					c33,0.3,66.1,0.6,99.1,0.9c28.3,0.2,56.6,0.5,84.9,0.7c16.2,0.1,32.4,0.3,48.7,0.4c1.4,0,2.8,0,4.1,0
					c6.8,0.3,11.6,5.1,11.9,11.9c0.2,4-0.1,8.1-0.1,12.1c-0.2,24.9-0.4,49.8-0.6,74.7c-0.3,32.9-0.6,65.8-0.9,98.6
					c-0.2,23-0.4,45.9-0.6,68.9C660.5,497.2,661.1,507.4,650.2,507.9c-2.5,0.1-4.4,4-1.2,3.9c8.9-0.4,15.9-6.5,16.4-15.6
					c0.1-1.3,0-2.6,0-3.9c0.1-8.1,0.1-16.1,0.2-24.2c0.3-29.8,0.5-59.6,0.8-89.3c0.3-32.4,0.6-64.8,0.8-97.1
					c0.1-15.7,0.9-31.5,0.4-47.2c-0.6-17.9-20.9-15-33.2-15.1c-22.4-0.2-44.9-0.4-67.3-0.6c-31.9-0.3-63.8-0.6-95.6-0.8
					c-33.9-0.3-67.8-0.6-101.6-0.9c-27.9-0.2-55.8-0.5-83.8-0.7c-14.5-0.1-29.1-0.3-43.6-0.4c-9.5,0-17.8,5.3-18.3,15.6
					c-0.2,4.6-0.1,9.3-0.1,13.9c-0.2,26.3-0.5,52.7-0.7,79c-0.3,33.5-0.6,67.1-0.9,100.6c-0.2,21.5-0.4,42.9-0.6,64.4
					c0,1.3-0.1,2.6,0,3.9c0.3,8.5,6.6,14.5,15,14.9c2.9,0.1,5.8,0.1,8.7,0.1c19,0.2,38,0.3,57,0.5c30.3,0.3,60.6,0.5,90.9,0.8
					c34.1,0.3,68.3,0.6,102.4,0.9c30,0.3,60.1,0.5,90.1,0.8c18.5,0.2,37,0.3,55.5,0.5c2.5,0,5.1,0,7.6,0.1
					C651.5,511.7,653.4,507.9,650.2,507.9z"/>
			</g>
			
				<rect id="XMLID_22_" x="288.1" y="372.5" transform="matrix(8.701300e-03 -1 1 8.701300e-03 -102.2607 747.9944)" class="st2" width="76.1" height="106.1"/>
			<g id="XMLID_10_">
				<g id="XMLID_20_">
					<path class="st3" d="M286.9,439.9c30.2,0.3,60.4,0.5,90.6,0.8c4.3,0,8.6,0.1,13,0.1c2.1,0,4.7-3.3,1.4-3.3
						c-30.2-0.3-60.4-0.5-90.6-0.8c-4.3,0-8.6-0.1-13-0.1C286.1,436.5,283.6,439.8,286.9,439.9L286.9,439.9z"/>
				</g>
				<g id="XMLID_18_">
					<path class="st3" d="M286.4,421c30.2,0.3,60.4,0.5,90.6,0.8c4.3,0,8.6,0.1,13,0.1c1.5,0,5.3-2.9,2.6-2.9
						c-30.2-0.3-60.4-0.5-90.6-0.8c-4.3,0-8.6-0.1-13-0.1C287.5,418,283.7,421,286.4,421L286.4,421z"/>
				</g>
				<g id="XMLID_16_">
					<path class="st3" d="M286.5,397.4c30.2,0.3,60.4,0.5,90.6,0.8c4.3,0,8.6,0.1,13,0.1c1.3,0,5.3-2.6,2.8-2.6
						c-30.2-0.3-60.4-0.5-90.6-0.8c-4.3,0-8.6-0.1-13-0.1C288,394.8,284,397.4,286.5,397.4L286.5,397.4z"/>
				</g>
				<g id="XMLID_11_">
					<g id="XMLID_14_">
						<path class="st3" d="M286.8,458c7.7,0.1,15.3,0.1,23,0.2c2.5,0,4.4-3.8,1.2-3.9c-7.7-0.1-15.3-0.1-23-0.2
							C285.5,454.1,283.5,458,286.8,458L286.8,458z"/>
					</g>
					<g id="XMLID_12_">
						<path class="st3" d="M327,458.2c7.7,0.1,15.3,0.1,23,0.2c2.3,0,4.6-3.5,1.3-3.6c-7.7-0.1-15.3-0.1-23-0.2
							C326,454.6,323.7,458.2,327,458.2L327,458.2z"/>
					</g>
				</g>
			</g>
		</g>
		<g>
			<g>
				<path class="st3" d="M488.3,303.5c-0.8,10.8-14.8,8.3-15.1-1.4c-0.1-2.5-4.9-1.3-4.8,0.9c0.5,15.7,23.6,14.4,24.7-0.5
					C493.3,300.1,488.4,301.2,488.3,303.5L488.3,303.5z"/>
			</g>
			<g>
				<path class="st3" d="M392.4,301.9c0.5,15.4,23.5,13,24.6-0.9c0.1-1.4-4.6,0-4.7,1.3c-0.4,5.1-4.3,9.5-9.8,6.9
					c-3.4-1.6-5.3-5-5.4-8.7C397,299,392.4,300.6,392.4,301.9L392.4,301.9z"/>
			</g>
			<g>
				<path class="st3" d="M412.3,355.3c5.8,9.9,19.2,12.9,29.9,12.7c10.5-0.2,23.5-3.6,29.1-13.3c1.5-2.7-3.1-2.8-4.2-0.9
					c-4.9,8.5-16.5,10.7-25.5,10.6c-8.7-0.1-20-2.7-24.8-10.9C415.8,351.4,411.2,353.3,412.3,355.3L412.3,355.3z"/>
			</g>
			<g>
				<path id="XMLID_9_" class="st5" d="M385.3,340.7c-0.1,7-4.5,12.5-9.7,12.5c-5.2-0.1-9.4-5.8-9.2-12.8c0.1-7,4.5-12.5,9.7-12.5
					C381.3,328,385.4,333.7,385.3,340.7z"/>
				
					<ellipse id="XMLID_2_" transform="matrix(1.704621e-02 -0.9999 0.9999 1.704621e-02 160.0006 848.3566)" class="st5" cx="511.5" cy="342.8" rx="12.6" ry="9.5"/>
			</g>
		</g>
	</g>
</g>
</svg>
