<?xml version="1.0" encoding="utf-8"?>
<!-- Generator: Adobe Illustrator 23.0.0, SVG Export Plug-In . SVG Version: 6.00 Build 0)  -->
<svg version="1.1" xmlns="http://www.w3.org/2000/svg" xmlns:xlink="http://www.w3.org/1999/xlink" x="0px" y="0px"
	 viewBox="0 0 18.1 18.7" style="enable-background:new 0 0 18.1 18.7;" xml:space="preserve">
<style type="text/css">
	.st0{fill:#A8AABD;}
</style>
<g id="Ñëîé_1">
</g>
<g id="Ñëîé_2">
	<g>
		<g>
			<path class="st0" d="M17.2,16.4H1.4c-0.3,0-0.6,0.3-0.6,0.6c0,0.3,0.3,0.6,0.6,0.6h15.8c0.3,0,0.6-0.3,0.6-0.6
				C17.8,16.7,17.5,16.4,17.2,16.4z M1.4,14.6l2.8,0c0.2,0,0.3-0.1,0.4-0.2l9.7-9.9c0.2-0.2,0.2-0.6,0-0.9l-2.8-2.9
				c-0.2-0.2-0.6-0.2-0.9,0l-1.9,2L1,10.6c-0.1,0.1-0.2,0.3-0.2,0.4l0,2.9c0,0.2,0.1,0.3,0.2,0.4C1.1,14.5,1.2,14.6,1.4,14.6z
				 M11.1,2.1l1.9,2l-1.1,1.1l-1.9-2L11.1,2.1z M2,11.3l7.1-7.3l1.9,2L4,13.3l-2,0L2,11.3z"/>
		</g>
	</g>
</g>
</svg>
