<?xml version="1.0" encoding="utf-8"?>
<!-- Generator: Adobe Illustrator 23.0.0, SVG Export Plug-In . SVG Version: 6.00 Build 0)  -->
<svg version="1.1" id="Layer_1" xmlns="http://www.w3.org/2000/svg" xmlns:xlink="http://www.w3.org/1999/xlink" x="0px" y="0px"
	 viewBox="0 0 30.9 21.1" style="enable-background:new 0 0 30.9 21.1;" xml:space="preserve">
<style type="text/css">
	.st0{fill:#FFFFFF;}
</style>
<path class="st0" d="M1.5,20.5h28.3c0.5,0,0.8-0.4,0.8-0.8V1.4c0-0.5-0.4-0.8-0.8-0.8H1.5C1,0.5,0.6,0.9,0.6,1.4v18.3
	C0.6,20.2,1,20.5,1.5,20.5z M2.3,17.6l9-8.9l10.3,10.2H2.3V17.6z M24,18.9l-3.5-3.5l2.6-2.6l5.7,5.6c0.1,0.1,0.1,0.1,0.2,0.1v0.3
	L24,18.9L24,18.9z M29,2.2v14L23.7,11c-0.3-0.3-0.9-0.3-1.2,0l-3.2,3.2l-7.4-7.3c-0.3-0.3-0.9-0.3-1.2,0l-8.4,8.3v-13H29z"/>
<path class="st0" d="M15.6,13.7c1.7,0,3.2-1.4,3.2-3.1c0-1.7-1.4-3.1-3.2-3.1c-1.7,0-3.2,1.4-3.2,3.1C12.5,12.3,13.9,13.7,15.6,13.7
	z M15.6,9.1c0.8,0,1.5,0.7,1.5,1.5c0,0.8-0.7,1.5-1.5,1.5c-0.8,0-1.5-0.7-1.5-1.5C14.2,9.7,14.8,9.1,15.6,9.1z"/>
</svg>
