<?xml version="1.0" encoding="utf-8"?>
<!-- Generator: Adobe Illustrator 23.0.0, SVG Export Plug-In . SVG Version: 6.00 Build 0)  -->
<svg version="1.1" id="Layer_1" xmlns="http://www.w3.org/2000/svg" xmlns:xlink="http://www.w3.org/1999/xlink" x="0px" y="0px"
	 viewBox="0 0 15 15.1" style="enable-background:new 0 0 15 15.1;" xml:space="preserve">
<style type="text/css">
	.st0{fill:#E04F5F;}
	.st1{fill:#FFFFFF;}
</style>
<g>
	<path class="st0" d="M14.5,7.5c0-3.9-3.2-7.1-7.1-7.1c-3.9,0-7.1,3.2-7.1,7.1c0,3.9,3.2,7.1,7.1,7.1C11.3,14.6,14.5,11.4,14.5,7.5
		L14.5,7.5z M14.5,7.5"/>
	<path class="st1" d="M8.3,7.5l2.1-2.4c0.2-0.3,0.2-0.7-0.1-0.9C10,4,9.6,4,9.4,4.3L7.4,6.6L5.5,4.3C5.3,4,4.9,4,4.6,4.2
		C4.3,4.5,4.3,4.9,4.5,5.1l2.1,2.4L4.5,9.9c-0.2,0.3-0.2,0.7,0.1,0.9C4.7,10.9,4.9,11,5,11c0.2,0,0.4-0.1,0.5-0.2l1.9-2.3l1.9,2.3
		C9.5,10.9,9.7,11,9.9,11c0.1,0,0.3,0,0.4-0.2c0.3-0.2,0.3-0.6,0.1-0.9L8.3,7.5z M8.3,7.5"/>
</g>
</svg>
