<?xml version="1.0" encoding="utf-8"?>
<!-- Generator: Adobe Illustrator 23.0.0, SVG Export Plug-In . SVG Version: 6.00 Build 0)  -->
<svg version="1.1" id="Layer_1" xmlns="http://www.w3.org/2000/svg" xmlns:xlink="http://www.w3.org/1999/xlink" x="0px" y="0px"
	 viewBox="0 0 30.5 30.5" style="enable-background:new 0 0 30.5 30.5;" xml:space="preserve">
<style type="text/css">
	.st0{fill-rule:evenodd;clip-rule:evenodd;fill:#164A97;}
	.st1{fill-rule:evenodd;clip-rule:evenodd;fill:#FFFFFF;}
	.st2{fill-rule:evenodd;clip-rule:evenodd;fill:#E6EAF8;}
	.st3{fill-rule:evenodd;clip-rule:evenodd;fill:#A8AABD;}
</style>
<path class="st0" d="M-371.7-130.7c0,18.4-3.3,46.4-12.6,62.3C-400.9-40.7-428.6-29-481.9-29c-52.7,0-81-11.7-97.2-39.4
	c-9.3-16-12.9-43.9-12.9-62.3c0-18.1,3.6-47.6,12.9-63.5c16.3-27.7,44.3-39.4,97.2-39.4c53.3,0,81,11.7,97.5,39.4
	C-375.1-178.3-371.7-148.8-371.7-130.7L-371.7-130.7z"/>
<path class="st1" d="M-473.2-85.9c3.9,9.3,12.6,12.3,18.7,12.3c15,0,23.8-15.4,18.4-28l-26.2-64.1c-4.2-9.6-12.9-12.3-19-12.3
	c-12.9,0-24.1,13.5-18.4,28L-473.2-85.9L-473.2-85.9z M-441.3-134.3c4.2,9.3,12.9,12.3,19,12.3c14.8,0,23.8-16.9,18.4-29.2l-6-14.4
	c-3.9-9.6-12.6-12.3-19-12.3c-12.9,0-23.8,13.5-18.1,28L-441.3-134.3L-441.3-134.3z M-526.5-85.9c3.9,9.3,12.6,12.3,18.7,12.3
	c15.1,0,24.1-15.4,18.7-28l-26.5-64.1c-4.2-9.6-12.9-12.3-19-12.3c-12.9,0-23.8,13.5-18.4,28L-526.5-85.9L-526.5-85.9z"/>
<g>
	<g>
		<g>
			<path class="st2" d="M24.2,0.2h-18c-3.3,0-6,2.7-6,6v18c0,3.3,2.7,6,6,6h18c3.3,0,6-2.7,6-6v-18C30.2,2.9,27.5,0.2,24.2,0.2z"/>
		</g>
	</g>
	<g>
		<path class="st3" d="M7.7,12.7c1.4,0,2.5,1.1,2.5,2.5s-1.1,2.5-2.5,2.5s-2.5-1.1-2.5-2.5S6.3,12.7,7.7,12.7z"/>
		<path class="st3" d="M15.2,12.7c1.4,0,2.5,1.1,2.5,2.5s-1.1,2.5-2.5,2.5c-1.4,0-2.5-1.1-2.5-2.5S13.8,12.7,15.2,12.7z"/>
		<path class="st3" d="M22.7,12.7c1.4,0,2.5,1.1,2.5,2.5s-1.1,2.5-2.5,2.5c-1.4,0-2.5-1.1-2.5-2.5S21.3,12.7,22.7,12.7z"/>
	</g>
</g>
</svg>
