<?xml version="1.0" encoding="utf-8"?>
<!-- Generator: Adobe Illustrator 23.0.0, SVG Export Plug-In . SVG Version: 6.00 Build 0)  -->
<svg version="1.1" id="icons" xmlns="http://www.w3.org/2000/svg" xmlns:xlink="http://www.w3.org/1999/xlink" x="0px" y="0px"
	 viewBox="0 0 13.2 13.2" style="enable-background:new 0 0 13.2 13.2;" xml:space="preserve">
<style type="text/css">
	.st0{fill:#B0B3C3;}
</style>
<g>
	<g>
		<path class="st0" d="M6.6,0.1C3,0.1,0.1,3,0.1,6.6s2.9,6.5,6.5,6.5c3.6,0,6.5-2.9,6.5-6.5S10.2,0.1,6.6,0.1z M6.6,11.7
			c-2.8,0-5.1-2.3-5.1-5.1c0-2.8,2.3-5.1,5.1-5.1c2.8,0,5.1,2.3,5.1,5.1C11.7,9.4,9.4,11.7,6.6,11.7z M10.1,6.4H7.6
			C7.5,6.2,7.3,6.1,7.2,6V3c0-0.3-0.3-0.6-0.6-0.6C6.3,2.4,6,2.6,6,3V6C5.7,6.2,5.5,6.6,5.5,7c0,0.6,0.5,1.1,1.1,1.1
			c0.4,0,0.8-0.2,1-0.5h2.5c0.3,0,0.6-0.3,0.6-0.6C10.7,6.6,10.4,6.4,10.1,6.4z"/>
	</g>
</g>
</svg>
