<?xml version="1.0" encoding="utf-8"?>
<!-- Generator: Adobe Illustrator 23.0.0, SVG Export Plug-In . SVG Version: 6.00 Build 0)  -->
<svg version="1.1" id="icons" xmlns="http://www.w3.org/2000/svg" xmlns:xlink="http://www.w3.org/1999/xlink" x="0px" y="0px"
	 viewBox="0 0 21 20.7" style="enable-background:new 0 0 21 20.7;" xml:space="preserve">
<style type="text/css">
	.st0{fill:#A8AABD;}
</style>
<g>
	<path class="st0" d="M14.9,17.1h3.9c1.1,0,2-0.9,2-2V4.4c0-1.1-0.9-2-2-2h-8.7c-0.1,0-0.2-0.1-0.3-0.2l-0.5-1
		C9,0.5,8.3,0.1,7.5,0.1H2.3c-1.1,0-2,0.9-2,2v13c0,0.5,0.2,1,0.6,1.4c0.4,0.4,0.9,0.6,1.4,0.6c0,0,0,0,0,0h3.9L14.9,17.1z
		 M19.2,4.4v0.4H2V2.1c0-0.2,0.2-0.3,0.3-0.3h5.2c0.1,0,0.2,0.1,0.3,0.2l0.5,1c0.3,0.7,1,1.1,1.8,1.1h8.7C19,4.1,19.2,4.3,19.2,4.4z
		 M6.2,15.4l-3.9,0c-0.2,0-0.3-0.1-0.3-0.3V6.5h17.2v8.6c0,0.2-0.1,0.3-0.4,0.3h-3.9H6.2z"/>
	<path class="st0" d="M15.3,8.8h2.4c0.5,0,0.8-0.4,0.8-0.8c0-0.5-0.4-0.8-0.8-0.8h-2.4c-0.5,0-0.8,0.4-0.8,0.8
		C14.4,8.5,14.8,8.8,15.3,8.8z"/>
	<path class="st0" d="M17.7,11.2c0.5,0,0.8-0.4,0.8-0.8s-0.4-0.8-0.8-0.8h-2.4c-0.5,0-0.8,0.4-0.8,0.8s0.4,0.8,0.8,0.8H17.7z"/>
</g>
</svg>
