<?xml version="1.0" encoding="utf-8"?>
<!-- Generator: Adobe Illustrator 23.0.0, SVG Export Plug-In . SVG Version: 6.00 Build 0)  -->
<svg version="1.1" id="Layer_1" xmlns="http://www.w3.org/2000/svg" xmlns:xlink="http://www.w3.org/1999/xlink" x="0px" y="0px"
	 viewBox="0 0 20 20" style="enable-background:new 0 0 20 20;" xml:space="preserve">
<style type="text/css">
	.st0{fill:#67AB49;}
	.st1{fill:#FFFFFF;}
</style>
<g>
	<g>
		<rect x="6.7" y="6.7" class="st0" width="6.7" height="4.4"/>
		<path class="st0" d="M10,0C4.4,0,0,4.4,0,10s4.4,10,10,10s10-4.4,10-10S15.6,0,10,0z M14.4,6.7v4.4v1.1h-3.3v1.1h2.2v1.1H6.7v-1.1
			h2.2v-1.1H5.6v-1.1V6.7V5.6h8.9L14.4,6.7L14.4,6.7z"/>
	</g>
</g>
<path class="st1" d="M14.4,12.2v-1.1V6.7V5.6H5.6v1.1v4.4v1.1h3.3v1.1H6.7v1.1h6.7v-1.1h-2.2v-1.1L14.4,12.2L14.4,12.2z M6.7,11.1
	V6.7h6.7v4.4L6.7,11.1L6.7,11.1z"/>
</svg>
