<?xml version="1.0" encoding="utf-8"?>
<!-- Generator: Adobe Illustrator 23.0.0, SVG Export Plug-In . SVG Version: 6.00 Build 0)  -->
<svg version="1.1" id="Layer_1" xmlns="http://www.w3.org/2000/svg" xmlns:xlink="http://www.w3.org/1999/xlink" x="0px" y="0px"
	 viewBox="0 0 20 20" style="enable-background:new 0 0 20 20;" xml:space="preserve">
<style type="text/css">
	.st0{fill:#3572B0;}
	.st1{fill:#FFFFFF;}
</style>
<g>
	<path class="st0" d="M10,0C4.4,0,0,4.4,0,10s4.4,10,10,10s10-4.4,10-10S15.6,0,10,0z M11.1,14.4H5.6v-1.1h5.6L11.1,14.4L11.1,14.4z
		 M14.4,12.2H5.6v-1.1h8.9L14.4,12.2L14.4,12.2z M14.4,10H5.6V8.9h8.9L14.4,10L14.4,10z M14.4,7.8H5.6V6.7h8.9L14.4,7.8L14.4,7.8z"
		/>
</g>
<rect x="5.6" y="13.3" class="st1" width="5.6" height="1.1"/>
<rect x="5.6" y="11.1" class="st1" width="8.9" height="1.1"/>
<rect x="5.6" y="8.9" class="st1" width="8.9" height="1.1"/>
<rect x="5.6" y="6.7" class="st1" width="8.9" height="1.1"/>
</svg>
