<?xml version="1.0" encoding="utf-8"?>
<!-- Generator: Adobe Illustrator 23.0.0, SVG Export Plug-In . SVG Version: 6.00 Build 0)  -->
<svg version="1.1" id="Layer_1" xmlns="http://www.w3.org/2000/svg" xmlns:xlink="http://www.w3.org/1999/xlink" x="0px" y="0px"
	 viewBox="0 0 60 60" style="enable-background:new 0 0 60 60;" xml:space="preserve">
<style type="text/css">
	.st0{fill-rule:evenodd;clip-rule:evenodd;fill:#FFAD00;}
	.st1{fill-rule:evenodd;clip-rule:evenodd;fill:#FFFFFF;}
</style>
<g id="Symbols">
	<g id="SOFTWARE">
		<g id="Shape">
			<path class="st0" d="M0,30C0,13.4,13.4,0,30,0l0,0c16.6,0,30,13.4,30,30l0,0c0,16.6-13.4,30-30,30l0,0C13.4,60,0,46.6,0,30L0,30z
				"/>
			<path class="st1" d="M25.5,39.6l-7.9-7.9l7.9-7.9l-2.4-2.4L12.9,31.7L23.1,42L25.5,39.6L25.5,39.6z M34.5,39.6l7.9-7.9l-7.9-7.9
				l2.4-2.4l10.3,10.3L36.9,42L34.5,39.6L34.5,39.6z"/>
		</g>
	</g>
</g>
</svg>
