<?xml version="1.0" encoding="iso-8859-1"?>
<!-- Generator: Adobe Illustrator 19.0.0, SVG Export Plug-In . SVG Version: 6.00 Build 0)  -->
<svg version="1.1" id="Layer_1" xmlns="http://www.w3.org/2000/svg" xmlns:xlink="http://www.w3.org/1999/xlink" x="0px" y="0px"
	 viewBox="0 0 512 512" style="enable-background:new 0 0 512 512;" xml:space="preserve">
<path style="fill:#FFCC5A;" d="M59.014,79.751v364.665c0,19.376,15.706,35.084,35.08,35.084h323.814
	c19.374,0,35.08-15.708,35.08-35.084V79.751H59.014z"/>
<path style="fill:#FFB000;" d="M424.181,79.751v364.665c0,19.376-15.706,35.084-35.08,35.084h28.806
	c19.374,0,35.079-15.708,35.079-35.084V79.751H424.181z"/>
<path style="fill:#FFA227;" d="M464.092,90.752H47.908c-8.733,0-15.813-7.08-15.813-15.813V48.316
	c0-8.733,7.08-15.813,15.813-15.813h416.184c8.733,0,15.813,7.08,15.813,15.813v26.623
	C479.906,83.672,472.826,90.752,464.092,90.752z"/>
<path style="fill:#F78B0B;" d="M464.093,32.502h-12.994v10.149c0,10.654-8.636,19.291-19.289,19.291H32.095v12.996
	c0,8.734,7.079,15.814,15.812,15.814h416.186c8.733,0,15.812-7.08,15.812-15.814V48.317
	C479.906,39.583,472.826,32.502,464.093,32.502z"/>
<path style="fill:#FF395A;" d="M340.551,376.434H171.449c-7.297,0-13.212-5.915-13.212-13.212v-24.078
	c0-7.297,5.915-13.212,13.212-13.212h169.102c7.297,0,13.212,5.915,13.212,13.212v24.078
	C353.763,370.518,347.848,376.434,340.551,376.434z"/>
<path style="fill:#D81942;" d="M340.552,325.932h-28.806c7.296,0,13.211,5.916,13.211,13.213v24.077
	c0,7.297-5.915,13.213-13.211,13.213h28.806c7.296,0,13.211-5.916,13.211-13.213v-24.077
	C353.763,331.847,347.848,325.932,340.552,325.932z"/>
<path style="fill:#088AFF;" d="M93.552,32.502v144.296c0,18.811,15.247,34.059,34.055,34.059l0,0
	c18.808,0,34.056-15.249,34.056-34.059v-7.006c0-18.81,15.247-34.059,34.055-34.059l0,0c18.808,0,34.056,15.249,34.056,34.059
	v51.635c0,18.811,15.247,34.059,34.055,34.059l0,0c18.808,0,34.055-15.249,34.055-34.059v-97.439
	c0,18.811,15.247,34.06,34.055,34.06l0,0c18.808,0,34.055-15.249,34.055-34.06V32.502H93.552z"/>
<g>
	<path style="fill:#0076CE;" d="M297.885,123.988c-15.909,0-28.806,12.899-28.806,28.81v68.63c0,13.661-8.045,25.437-19.652,30.864
		c4.375,2.046,9.254,3.195,14.403,3.195l0,0c18.808,0,34.055-15.249,34.055-34.059V123.988L297.885,123.988z"/>
	<path style="fill:#0076CE;" d="M166.912,135.732c-18.808,0-34.055,15.249-34.055,34.06v7.006c0,13.661-8.045,25.437-19.652,30.864
		c4.376,2.046,9.254,3.195,14.403,3.195c18.808,0,34.056-15.249,34.056-34.059v-7.006c0-13.661,8.045-25.437,19.652-30.864
		C176.939,136.882,172.061,135.732,166.912,135.732z"/>
	<path style="fill:#0076CE;" d="M337.189,32.502v91.486c0,13.661-8.045,25.437-19.652,30.864c4.375,2.046,9.254,3.195,14.403,3.195
		l0,0c18.808,0,34.055-15.249,34.055-34.059V32.502H337.189z"/>
</g>
<path style="fill:#051C1B;" d="M487.405,55.357v-7.042c0-12.855-10.458-23.313-23.313-23.313h-98.097H93.552H47.908
	c-12.855,0-23.313,10.458-23.313,23.313v7.042C10.488,58.863,0,71.632,0,86.81v85.002c0,44.712,16.048,87.969,45.188,121.802
	c2.052,2.382,4.165,4.701,6.325,6.968v81.795c0,4.142,3.358,7.5,7.5,7.5s7.5-3.358,7.5-7.5v-67.693
	c24.154,20.327,53.148,34.299,84.224,40.378v8.16c0,11.42,9.292,20.712,20.712,20.712h169.102c11.421,0,20.712-9.292,20.712-20.712
	v-8.16c31.077-6.08,60.071-20.052,84.225-40.379v129.733c0,15.209-12.372,27.583-27.58,27.583H94.093
	c-15.208,0-27.58-12.374-27.58-27.583v-31.711c0-4.142-3.358-7.5-7.5-7.5s-7.5,3.358-7.5,7.5v31.711
	c0,23.48,19.101,42.583,42.58,42.583h323.814c23.479,0,42.58-19.103,42.58-42.583V300.58c2.16-2.267,4.273-4.585,6.324-6.967
	C495.952,259.781,512,216.523,512,171.812V86.81C512,71.632,501.512,58.863,487.405,55.357z M472.405,48.315v26.623
	c0,4.584-3.729,8.313-8.313,8.313h-90.597v-43.25h90.597C468.677,40.002,472.405,43.731,472.405,48.315z M358.496,90.752v33.236
	c0,14.645-11.913,26.56-26.556,26.56s-26.556-11.915-26.556-26.56c0-4.142-3.357-7.5-7.5-7.5s-7.5,3.358-7.5,7.5v97.439
	c0,14.645-11.913,26.559-26.556,26.559s-26.556-11.915-26.556-26.559v-51.635c0-22.916-18.642-41.56-41.555-41.56
	c-22.914,0-41.556,18.644-41.556,41.56v7.005c0,14.645-11.913,26.56-26.556,26.56s-26.555-11.915-26.555-26.56V90.752v-50.75
	h257.444v50.75H358.496z M39.595,48.315c0-4.584,3.729-8.313,8.313-8.313h38.144v43.25H47.908c-4.584,0-8.313-3.729-8.313-8.313
	V48.315z M15,171.812V86.81c0-6.79,3.911-12.677,9.595-15.546v3.675c0,12.855,10.458,23.313,23.313,23.313h3.605v179.895
	C28.492,248.816,15,211.829,15,171.812z M340.551,368.934H171.449c-3.149,0-5.712-2.563-5.712-5.712v-13.035
	c0.084-0.451,0.137-0.91,0.137-1.377v-9.783c0-1.751,0.795-3.318,2.042-4.364c0.973-0.769,2.199-1.232,3.533-1.232h169.102
	c1.334,0,2.56,0.463,3.534,1.233c1.246,1.045,2.042,2.613,2.042,4.363v9.783c0,0.466,0.052,0.926,0.137,1.377v13.035
	C346.263,366.371,343.7,368.934,340.551,368.934z M497,171.812c0,40.017-13.492,77.004-36.513,106.333v-118.27
	c0-4.142-3.357-7.5-7.5-7.5s-7.5,3.358-7.5,7.5v134.98c-22.607,22.074-51.479,37.988-84.225,44.915v-0.627
	c0-6.467-2.983-12.247-7.641-16.049c-3.583-2.972-8.18-4.761-13.188-4.761H171.567c-5.008,0-9.604,1.79-13.188,4.761
	c-4.659,3.801-7.642,9.582-7.642,16.049v0.627c-32.746-6.927-61.616-22.841-84.224-44.915V98.252h19.538v78.546
	c0,22.916,18.642,41.56,41.555,41.56c22.914,0,41.556-18.644,41.556-41.56v-7.005c0-14.645,11.913-26.56,26.556-26.56
	s26.555,11.915,26.555,26.56v51.635c0,22.916,18.642,41.559,41.556,41.559s41.556-18.643,41.556-41.559v-65.496
	c7.206,6.002,16.467,9.616,26.556,9.616c22.914,0,41.556-18.644,41.556-41.56V98.252h71.991v31.499c0,4.142,3.357,7.5,7.5,7.5
	s7.5-3.358,7.5-7.5V98.252h3.605c12.854,0,23.313-10.458,23.313-23.313v-3.675c5.684,2.869,9.595,8.756,9.595,15.546v85.002H497z"/>
<g>
</g>
<g>
</g>
<g>
</g>
<g>
</g>
<g>
</g>
<g>
</g>
<g>
</g>
<g>
</g>
<g>
</g>
<g>
</g>
<g>
</g>
<g>
</g>
<g>
</g>
<g>
</g>
<g>
</g>
</svg>
