<?xml version="1.0" encoding="iso-8859-1"?>
<!-- Generator: Adobe Illustrator 19.0.0, SVG Export Plug-In . SVG Version: 6.00 Build 0)  -->
<svg version="1.1" id="Capa_1" xmlns="http://www.w3.org/2000/svg" xmlns:xlink="http://www.w3.org/1999/xlink" x="0px" y="0px"
	 viewBox="0 0 512 512" style="enable-background:new 0 0 512 512;" xml:space="preserve">
<path style="fill:#303C42;" d="M256,0C150.125,0,64,86.135,64,192c0,141.646,177.146,310,184.688,317.104
	C250.75,511.031,253.375,512,256,512s5.25-0.969,7.313-2.896C270.854,502,448,333.646,448,192C448,86.135,361.875,0,256,0z"/>
<path style="fill:#E57373;" d="M256,486.406C222.479,452.938,85.333,308.833,85.333,192c0-94.104,76.563-170.667,170.667-170.667
	S426.667,97.896,426.667,192C426.667,308.833,289.521,452.938,256,486.406z"/>
<circle style="fill:#303C42;" cx="256" cy="192" r="106.667"/>
<circle style="fill:#FFFFFF;" cx="256" cy="192" r="85.333"/>
<path style="opacity:0.1;enable-background:new    ;" d="M202.667,234.667c0-47.052,38.271-85.333,85.333-85.333
	c17.978,0,34.621,5.65,48.389,15.177c-11.508-33.527-43-57.844-80.389-57.844c-47.063,0-85.333,38.281-85.333,85.333
	c0,29.078,14.668,54.742,36.944,70.156C204.633,253.483,202.667,244.337,202.667,234.667z"/>
<linearGradient id="SVGID_1_" gradientUnits="userSpaceOnUse" x1="-43.8404" y1="639.1841" x2="-27.4172" y2="631.526" gradientTransform="matrix(21.3333 0 0 -21.3333 996.3334 13791.667)">
	<stop  offset="0" style="stop-color:#FFFFFF;stop-opacity:0.2"/>
	<stop  offset="1" style="stop-color:#FFFFFF;stop-opacity:0"/>
</linearGradient>
<path style="fill:url(#SVGID_1_);" d="M256,0C150.125,0,64,86.135,64,192c0,141.646,177.146,310,184.688,317.104
	C250.75,511.031,253.375,512,256,512s5.25-0.969,7.313-2.896C270.854,502,448,333.646,448,192C448,86.135,361.875,0,256,0z"/>
<g>
</g>
<g>
</g>
<g>
</g>
<g>
</g>
<g>
</g>
<g>
</g>
<g>
</g>
<g>
</g>
<g>
</g>
<g>
</g>
<g>
</g>
<g>
</g>
<g>
</g>
<g>
</g>
<g>
</g>
</svg>
