<?xml version="1.0" encoding="iso-8859-1"?>
<!-- Generator: Adobe Illustrator 19.0.0, SVG Export Plug-In . SVG Version: 6.00 Build 0)  -->
<svg version="1.1" id="Layer_1" xmlns="http://www.w3.org/2000/svg" xmlns:xlink="http://www.w3.org/1999/xlink" x="0px" y="0px"
	 viewBox="0 0 502 502" style="enable-background:new 0 0 502 502;" xml:space="preserve">
<g>
	<g>
		<path style="fill:#DB4949;" d="M419.65,178.65C419.65,271.793,251,492,251,492S82.35,271.793,82.35,178.65S157.857,10,251,10
			S419.65,85.507,419.65,178.65z"/>
		<path d="M251,502c-3.112,0-6.047-1.449-7.939-3.919C236.09,488.979,72.35,274.085,72.35,178.65C72.35,80.142,152.492,0,251,0
			s178.65,80.142,178.65,178.65c0,95.435-163.74,310.329-170.711,319.431C257.047,500.551,254.112,502,251,502z M251,20
			C163.52,20,92.35,91.17,92.35,178.65c0,36.171,28.597,100.537,82.7,186.138c30.728,48.617,61.778,91.432,75.95,110.544
			c14.172-19.112,45.222-61.927,75.95-110.544c54.103-85.602,82.7-149.967,82.7-186.138C409.65,91.17,338.48,20,251,20z"/>
	</g>
	<g>
		<circle style="fill:#E6E6E6;" cx="251" cy="178.65" r="94.803"/>
		<path d="M251,283.454c-57.789,0-104.803-47.015-104.803-104.804c0-57.789,47.015-104.803,104.803-104.803
			s104.803,47.015,104.803,104.803C355.803,236.439,308.789,283.454,251,283.454z M251,93.847
			c-46.761,0-84.803,38.042-84.803,84.803s38.042,84.804,84.803,84.804s84.803-38.043,84.803-84.804S297.761,93.847,251,93.847z"/>
	</g>
	<g>
		<path d="M162.002,90.081c-2.729,0-5.449-1.111-7.423-3.296c-3.703-4.098-3.382-10.422,0.716-14.124
			C181.571,48.921,215.56,35.847,251,35.847c19.803,0,38.979,3.98,56.995,11.83c5.063,2.206,7.379,8.099,5.173,13.162
			s-8.101,7.379-13.162,5.173c-15.48-6.745-31.968-10.165-49.005-10.165c-30.477,0-59.704,11.242-82.296,31.654
			C166.791,89.229,164.393,90.081,162.002,90.081z"/>
	</g>
	<g>
		<path d="M118.197,188.65c-5.523,0-10-4.477-10-10c0-23.073,5.634-45.999,16.292-66.299c2.567-4.89,8.612-6.771,13.503-4.205
			c4.89,2.568,6.772,8.613,4.205,13.503c-9.159,17.444-14,37.154-14,57.001C128.197,184.173,123.72,188.65,118.197,188.65z"/>
	</g>
</g>
<g>
</g>
<g>
</g>
<g>
</g>
<g>
</g>
<g>
</g>
<g>
</g>
<g>
</g>
<g>
</g>
<g>
</g>
<g>
</g>
<g>
</g>
<g>
</g>
<g>
</g>
<g>
</g>
<g>
</g>
</svg>
