<?xml version="1.0" encoding="utf-8"?>
<!-- Generator: Adobe Illustrator 16.0.0, SVG Export Plug-In . SVG Version: 6.00 Build 0)  -->
<!DOCTYPE svg PUBLIC "-//W3C//DTD SVG 1.1//EN" "http://www.w3.org/Graphics/SVG/1.1/DTD/svg11.dtd">
<svg version="1.1" id="Capa_1" xmlns="http://www.w3.org/2000/svg" xmlns:xlink="http://www.w3.org/1999/xlink" x="0px" y="0px"
	 width="800px" height="800px" viewBox="0 0 800 800" enable-background="new 0 0 800 800" xml:space="preserve">
<g>
	<path fill="#259245" d="M24.807,646.161v-39.71c0-6.563-5.34-11.902-11.903-11.902h-1v-27.807h1c6.563,0,11.903-5.34,11.903-11.903
		v-401h750.387v492.322H24.807z M267.928,490.911c-6.563,0-11.903,5.34-11.903,11.903s5.34,11.903,11.903,11.903h215.259v13.806
		c0,6.563,5.34,11.902,11.903,11.902s11.903-5.34,11.903-11.902v-13.806h13.194v1.993c0,6.563,5.34,11.903,11.903,11.903
		s11.903-5.34,11.903-11.903v-13.896c0-6.563-5.34-11.903-11.903-11.903h-25.098v-13.805c0-6.563-5.34-11.903-11.903-11.903
		c-3.18,0-6.169,1.238-8.416,3.486c-2.249,2.249-3.486,5.237-3.485,8.417v13.805H267.928z M577.204,254.18
		c-6.563,0-11.903,5.34-11.903,11.903v90.56c0,13.229-10.764,23.992-23.993,23.992c-3.142,0-6.107,1.214-8.349,3.418l-0.15,0.15
		c-2.271,2.233-3.533,5.212-3.559,8.391c-0.026,3.179,1.188,6.178,3.418,8.445c2.257,2.292,5.271,3.555,8.486,3.555
		c0.701,0,1.402-0.062,2.086-0.183l0.065-0.012l0.066-0.003c25.646-1.093,45.735-22.069,45.735-47.754v-90.56
		C589.107,259.52,583.768,254.18,577.204,254.18z M499.881,259.81c-6.563,0-11.902,5.34-11.902,11.903v120.979
		c0,6.563,5.339,11.903,11.902,11.903s11.903-5.34,11.903-11.903V271.713C511.784,265.149,506.444,259.81,499.881,259.81z
		 M397.432,388.971c8.657,9.408,20.41,14.887,33.095,15.427l0.065,0.003l0.064,0.011c0.693,0.122,1.396,0.184,2.088,0.184
		c3.204,0,6.21-1.255,8.464-3.532c2.236-2.26,3.458-5.256,3.44-8.435c-0.018-3.18-1.271-6.162-3.532-8.398l-0.153-0.151
		c-2.244-2.22-5.217-3.442-8.372-3.442c-13.229,0-23.99-10.763-23.99-23.992v-5.768h50.007c6.563,0,11.903-5.34,11.903-11.903
		s-5.34-11.903-11.903-11.903h-61.91c-6.563,0-11.903,5.339-11.903,11.903v17.671c0,13.229-10.762,23.992-23.99,23.992
		c-0.594,0-1.194,0.045-1.784,0.135l-0.077,0.012l-33.484-0.147c-6.587,0-11.927,5.316-11.956,11.851
		c-0.014,3.179,1.211,6.174,3.45,8.432c2.238,2.259,5.222,3.51,8.401,3.523l35.239,0.153c0.747,0,1.447-0.062,2.132-0.183
		l0.065-0.012l0.066-0.003c12.69-0.539,24.446-6.018,33.103-15.427l0.736-0.8L397.432,388.971z M222.796,370.059
		c-3.14,0-6.104,1.212-8.344,3.414c-4.68,4.599-4.746,12.15-0.146,16.833c8.948,9.104,20.907,14.179,33.675,14.29h0.103
		c0.693,0,1.393-0.062,2.08-0.183l0.065-0.012l0.066-0.003c22.01-0.934,40.43-16.67,44.795-38.27l0.162-0.802h30.155
		c6.563,0,11.903-5.34,11.903-11.903s-5.34-11.903-11.903-11.903h-29.37v-75.435c0-6.563-5.34-11.903-11.903-11.903
		s-11.903,5.339-11.903,11.903v90.56c0,13.229-10.762,23.992-23.99,23.992c-0.479,0-0.96,0.029-1.428,0.085l-0.096,0.012
		l-0.097-0.007c-5.8-0.423-11.246-2.948-15.335-7.11C229.03,371.323,226.015,370.059,222.796,370.059z M242.861,254.182
		c-6.563,0-11.903,5.339-11.903,11.903v72.89c0,6.563,5.34,11.903,11.903,11.903c6.563,0,11.903-5.34,11.903-11.903v-72.89
		C254.764,259.521,249.424,254.182,242.861,254.182z M325.409,254.182c-6.563,0-11.903,5.339-11.903,11.903v48.222
		c0,6.563,5.34,11.903,11.903,11.903s11.903-5.34,11.903-11.903v-48.222C337.313,259.521,331.973,254.182,325.409,254.182z
		 M537.402,259.81c-6.563,0-11.903,5.34-11.903,11.903V297.7c0,6.563,5.34,11.903,11.903,11.903s11.903-5.34,11.903-11.903v-25.987
		C549.306,265.149,543.966,259.81,537.402,259.81z M436.217,302.086c6.671,4.917,14.412,7.517,22.388,7.517
		c6.563,0,11.903-5.34,11.903-11.903s-5.34-11.903-11.903-11.903c-4.995,0-9.715-2.9-12.949-7.957
		c-2.196-3.438-5.943-5.49-10.023-5.492c-4.08,0-7.828,2.051-10.028,5.485c-3.239,5.061-7.963,7.963-12.96,7.963
		c-4.995,0-9.715-2.9-12.948-7.957c-2.2-3.438-5.949-5.491-10.03-5.491c-4.087,0.001-7.836,2.056-10.031,5.497
		c-3.226,5.053-7.947,7.951-12.954,7.951c-6.564,0-11.905,5.34-11.905,11.903s5.34,11.903,11.903,11.903
		c7.982,0,15.726-2.598,22.395-7.513l0.593-0.437l0.593,0.437c6.669,4.915,14.408,7.513,22.381,7.513
		c7.975,0,15.716-2.6,22.388-7.518l0.594-0.437L436.217,302.086z"/>
	<path fill="#259245" d="M25.807,606.451v38.71h748.387V154.839H25.807v400c0,7.126-5.777,12.903-12.903,12.903v25.807
		C20.029,593.549,25.807,599.325,25.807,606.451z M564.301,356.644v-90.56c0-7.126,5.777-12.903,12.903-12.903
		s12.903,5.777,12.903,12.903v90.56c0,26.202-20.757,47.647-46.692,48.753c-0.748,0.133-1.505,0.198-2.261,0.198
		c-3.338,0-6.672-1.286-9.199-3.854c-4.998-5.081-4.933-13.249,0.148-18.247l0.154-0.153c2.414-2.374,5.664-3.706,9.05-3.706
		C553.987,379.635,564.301,369.321,564.301,356.644z M524.499,271.713c0-7.126,5.777-12.903,12.903-12.903
		s12.903,5.777,12.903,12.903V297.7c0,7.126-5.777,12.903-12.903,12.903s-12.903-5.777-12.903-12.903V271.713z M486.979,271.713
		c0-7.126,5.776-12.903,12.902-12.903c7.127,0,12.903,5.777,12.903,12.903v120.979c0,7.126-5.776,12.903-12.903,12.903
		c-7.126,0-12.902-5.777-12.902-12.903V271.713z M495.09,464.203c7.126,0,12.903,5.777,12.903,12.903v12.805h24.098
		c7.126,0,12.903,5.777,12.903,12.903v13.896c0,7.126-5.777,12.903-12.903,12.903s-12.903-5.777-12.903-12.903v-0.993h-11.194
		v12.806c0,7.126-5.777,12.902-12.903,12.902s-12.903-5.776-12.903-12.902v-12.806H267.928c-7.126,0-12.903-5.777-12.903-12.903
		s5.777-12.903,12.903-12.903h214.261v-12.805C482.187,469.98,487.964,464.203,495.09,464.203z M432.592,379.635
		c3.397,0,6.658,1.34,9.073,3.73l0.155,0.153c5.066,5.012,5.111,13.182,0.1,18.248c-2.523,2.551-5.848,3.829-9.175,3.829
		c-0.757,0-1.515-0.067-2.261-0.198c-13.344-0.568-25.308-6.532-33.788-15.749c-8.481,9.218-20.448,15.181-33.796,15.749
		c-0.738,0.131-1.493,0.198-2.254,0.198c-0.019,0-0.036,0-0.057,0l-35.239-0.153c-7.126-0.031-12.878-5.833-12.847-12.959
		c0.031-7.107,5.803-12.847,12.903-12.847c0.019,0,0.038,0,0.057,0l33.406,0.146c0.636-0.097,1.283-0.146,1.935-0.146
		c12.679,0,22.99-10.314,22.99-22.992v-17.671c0-7.126,5.777-12.903,12.903-12.903h61.91c7.126,0,12.903,5.777,12.903,12.903
		c0,7.126-5.777,12.903-12.903,12.903h-49.007v4.768C409.602,369.321,419.916,379.635,432.592,379.635z M366.681,284.796
		c4.659,0,9.071-2.729,12.11-7.489c2.368-3.713,6.469-5.958,10.871-5.959c0.002,0,0.003,0,0.003,0c4.404,0,8.501,2.245,10.873,5.953
		c3.046,4.764,7.457,7.496,12.105,7.496s9.066-2.735,12.118-7.502c2.373-3.704,6.469-5.946,10.867-5.946c0.001,0,0.001,0,0.003,0
		c4.401,0.001,8.497,2.245,10.866,5.953c3.047,4.764,7.458,7.496,12.106,7.496c7.126,0,12.903,5.777,12.903,12.903
		s-5.777,12.903-12.903,12.903c-8.275,0-16.256-2.754-22.981-7.712c-6.727,4.958-14.709,7.712-22.981,7.712
		c-8.273,0-16.251-2.752-22.975-7.708c-6.724,4.955-14.706,7.708-22.988,7.708c-7.126,0-12.903-5.777-12.903-12.903
		S359.555,284.796,366.681,284.796z M312.506,266.085c0-7.126,5.777-12.903,12.903-12.903s12.903,5.777,12.903,12.903v48.222
		c0,7.126-5.777,12.903-12.903,12.903s-12.903-5.777-12.903-12.903V266.085z M229.958,266.085c0-7.126,5.777-12.903,12.903-12.903
		c7.126,0,12.903,5.777,12.903,12.903v72.89c0,7.126-5.777,12.903-12.903,12.903c-7.126,0-12.903-5.777-12.903-12.903V266.085z
		 M213.751,372.759c5.084-4.995,13.254-4.924,18.247,0.158c3.95,4.021,9.122,6.407,14.694,6.813
		c0.511-0.062,1.029-0.093,1.548-0.093c12.678,0,22.99-10.314,22.99-22.992v-90.56c0-7.126,5.777-12.903,12.903-12.903
		s12.903,5.777,12.903,12.903v74.435h28.37c7.126,0,12.903,5.777,12.903,12.903s-5.777,12.903-12.903,12.903H296.07
		c-4.37,21.622-23.076,38.109-45.732,39.07c-0.74,0.131-1.493,0.198-2.253,0.198c-0.036,0-0.074,0-0.112,0
		c-13.034-0.112-25.244-5.293-34.379-14.589C208.599,385.922,208.669,377.753,213.751,372.759z"/>
	<path d="M787.097,129.032H12.903C5.777,129.032,0,134.81,0,141.936v412.903c0,7.126,5.777,12.903,12.903,12.903
		s12.903-5.777,12.903-12.903v-400h748.387v490.322H25.807v-38.71c0-7.126-5.777-12.902-12.903-12.902S0,599.325,0,606.451v51.613
		c0,7.126,5.777,12.903,12.903,12.903h774.193c7.126,0,12.903-5.777,12.903-12.903V141.936
		C800,134.81,794.223,129.032,787.097,129.032z"/>
	<path fill="#FFFFFF" d="M267.928,489.911c-7.126,0-12.903,5.777-12.903,12.903s5.777,12.903,12.903,12.903h214.261v12.806
		c0,7.126,5.777,12.902,12.903,12.902s12.903-5.776,12.903-12.902v-12.806h11.194v0.993c0,7.126,5.777,12.903,12.903,12.903
		s12.903-5.777,12.903-12.903v-13.896c0-7.126-5.777-12.903-12.903-12.903h-24.098v-12.805c0-7.126-5.777-12.903-12.903-12.903
		s-12.903,5.777-12.903,12.903v12.805H267.928z"/>
	<path fill="#FFFFFF" d="M325.409,327.208c7.126,0,12.903-5.777,12.903-12.903v-48.222c0-7.126-5.777-12.903-12.903-12.903
		s-12.903,5.777-12.903,12.903v48.222C312.506,321.433,318.281,327.208,325.409,327.208z"/>
	<path fill="#FFFFFF" d="M247.973,405.595c0.038,0,0.074,0,0.112,0c0.76,0,1.514-0.067,2.253-0.198
		c22.657-0.963,41.363-17.45,45.732-39.07h29.337c7.126,0,12.903-5.777,12.903-12.903s-5.777-12.903-12.903-12.903h-28.37v-74.435
		c0-7.126-5.777-12.903-12.903-12.903s-12.903,5.777-12.903,12.903v90.56c0,12.678-10.314,22.992-22.99,22.992
		c-0.52,0-1.037,0.031-1.548,0.093c-5.572-0.406-10.744-2.792-14.694-6.813c-4.994-5.082-13.163-5.153-18.247-0.158
		c-5.082,4.994-5.153,13.165-0.158,18.247C222.729,400.301,234.938,405.482,247.973,405.595z"/>
	<path fill="#FFFFFF" d="M532.26,383.341l-0.154,0.153c-5.081,4.998-5.148,13.167-0.148,18.247c2.525,2.567,5.861,3.854,9.199,3.854
		c0.755,0,1.512-0.067,2.261-0.198c25.936-1.105,46.692-22.549,46.692-48.753v-90.56c0-7.126-5.777-12.903-12.903-12.903
		s-12.903,5.777-12.903,12.903v90.56c0,12.678-10.314,22.992-22.99,22.992C537.925,379.635,534.676,380.967,532.26,383.341z"/>
	<path fill="#FFFFFF" d="M366.681,310.603c8.28,0,16.265-2.752,22.988-7.708c6.724,4.955,14.701,7.708,22.975,7.708
		s16.255-2.754,22.981-7.713c6.725,4.958,14.706,7.713,22.981,7.713c7.126,0,12.903-5.777,12.903-12.903
		s-5.777-12.903-12.903-12.903c-4.648,0-9.062-2.732-12.106-7.496c-2.369-3.708-6.467-5.951-10.866-5.953c-0.002,0-0.002,0-0.004,0
		c-4.399,0-8.495,2.242-10.866,5.946c-3.052,4.767-7.47,7.502-12.118,7.502s-9.061-2.732-12.105-7.496
		c-2.37-3.709-6.469-5.953-10.871-5.953c0,0-0.002,0-0.004,0c-4.404,0.001-8.502,2.249-10.871,5.959
		c-3.038,4.76-7.453,7.489-12.11,7.489c-7.126,0-12.903,5.777-12.903,12.903S359.555,310.603,366.681,310.603z"/>
	<path fill="#FFFFFF" d="M499.881,405.595c7.127,0,12.903-5.777,12.903-12.903V271.713c0-7.126-5.776-12.903-12.903-12.903
		c-7.126,0-12.902,5.777-12.902,12.903v120.979C486.979,399.819,492.755,405.595,499.881,405.595z"/>
	<path fill="#FFFFFF" d="M458.608,351.876c7.126,0,12.903-5.777,12.903-12.903c0-7.126-5.777-12.903-12.903-12.903h-61.91
		c-7.126,0-12.903,5.777-12.903,12.903v17.671c0,12.678-10.313,22.992-22.99,22.992c-0.651,0-1.299,0.05-1.935,0.146l-33.406-0.146
		c-0.019,0-0.038,0-0.057,0c-7.099,0-12.87,5.739-12.903,12.847c-0.031,7.126,5.721,12.928,12.847,12.959l35.239,0.153
		c0.02,0,0.038,0,0.057,0c0.761,0,1.515-0.067,2.254-0.198c13.348-0.567,25.314-6.53,33.796-15.749
		c8.48,9.215,20.444,15.18,33.788,15.749c0.748,0.133,1.505,0.198,2.261,0.198c3.325,0,6.651-1.278,9.175-3.829
		c5.012-5.067,4.967-13.236-0.1-18.248l-0.155-0.153c-2.415-2.39-5.676-3.73-9.073-3.73c-12.678,0-22.992-10.314-22.992-22.992
		v-4.768H458.608z"/>
	<path fill="#FFFFFF" d="M537.402,310.603c7.126,0,12.903-5.777,12.903-12.903v-25.987c0-7.126-5.777-12.903-12.903-12.903
		s-12.903,5.777-12.903,12.903V297.7C524.499,304.826,530.276,310.603,537.402,310.603z"/>
	<path fill="#FFFFFF" d="M242.861,351.876c7.126,0,12.903-5.777,12.903-12.903v-72.889c0-7.126-5.777-12.903-12.903-12.903
		c-7.126,0-12.903,5.777-12.903,12.903v72.889C229.958,346.099,235.735,351.876,242.861,351.876z"/>
</g>
</svg>
