<svg xmlns="http://www.w3.org/2000/svg" width="122.154" height="30" viewBox="0 0 122.154 30">
  <g id="Group_1002" data-name="Group 1002" transform="translate(-30 -30)">
    <path id="Path_432" data-name="Path 432" d="M27.134,2.79a36.977,36.977,0,0,0-4.287,1.225A37.794,37.794,0,0,0,18.8,5.671,27.941,27.941,0,0,0,15.4,7.6a27.94,27.94,0,0,0-3.42-1.929,37.8,37.8,0,0,0-4.04-1.657A36.978,36.978,0,0,0,3.661,2.79L2,2.45v16.6a13.4,13.4,0,1,0,26.8,0V2.45ZM15.4,11.07c2.507,2.1,3.775,4.491,3.764,7.083a3.764,3.764,0,1,1-7.528,0h0C11.625,15.537,12.892,13.16,15.4,11.07Zm10.625,7.983a10.628,10.628,0,1,1-21.255,0V5.923a34.084,34.084,0,0,1,8.3,3.493,14.394,14.394,0,0,0-2.512,2.934,10.642,10.642,0,0,0-1.7,5.8,6.538,6.538,0,1,0,13.076,0,10.645,10.645,0,0,0-1.7-5.8A14.391,14.391,0,0,0,17.72,9.407a31.872,31.872,0,0,1,5.987-2.762c.878-.3,1.671-.547,2.313-.723Z" transform="translate(28 27.55)" fill="#008690"/>
    <text id="TripFinder." transform="translate(62.154 51.287)" fill="#424242" font-size="16" font-family="Futura-Bold, Futura" font-weight="700"><tspan x="0" y="0">Trip</tspan><tspan y="0" fill="#008690">Finder</tspan><tspan y="0" fill="#fff">.</tspan></text>
  </g>
</svg>
