<svg xmlns="http://www.w3.org/2000/svg" width="18.309" height="15.537" viewBox="0 0 18.309 15.537">
  <path id="_ionicons_svg_ios-share-alt_1_" data-name="_ionicons_svg_ios-share-alt (1)" d="M80.68,101.873,74.507,96.1a.316.316,0,0,0-.245-.105c-.193.009-.438.144-.438.35v2.9a.187.187,0,0,1-.158.179c-6.138.941-8.724,5.535-9.639,10.3-.035.188.219.363.337.214a11.158,11.158,0,0,1,9.275-4.7.216.216,0,0,1,.184.21v2.844a.375.375,0,0,0,.634.232l6.217-5.876a.483.483,0,0,0,.153-.368A.586.586,0,0,0,80.68,101.873Z" transform="translate(-63.271 -95.242)" fill="#fff" stroke="#2c2c2c" stroke-width="1.5"/>
</svg>
